<svg width="20" height="20" viewBox="0 0 20 20" fill="none" xmlns="http://www.w3.org/2000/svg">
<path d="M10 2C14.08 2 17.45 5.05 17.94 9H13.88C13.43 7.27 11.86 6 10 6C8.14 6 6.57 7.27 6.13 9H2.06C2.55 5.05 5.92 2 10 2Z" fill="#F51E1E"/>
<path d="M9.94 18C5.86 18 2.49 14.95 2 11L6.06001 11C6.51001 12.73 8.08001 14 9.94001 14C11.8 14 13.37 12.73 13.81 11L17.88 11C17.39 14.95 14.02 18 9.94 18Z" fill="white"/>
<path d="M10 0C4.48 0 0 4.48 0 10C0 15.52 4.48 20 10 20C15.52 20 20 15.52 20 10C20 4.48 15.52 0 10 0ZM10 2C14.08 2 17.45 5.05 17.94 9H13.88C13.43 7.27 11.86 6 10 6C8.14 6 6.57 7.27 6.13 9H2.06C2.55 5.05 5.92 2 10 2ZM12 10C12 11.1 11.1 12 10 12C8.9 12 8 11.1 8 10C8 8.9 8.9 8 10 8C11.1 8 12 8.9 12 10ZM10 18C5.92 18 2.55 14.95 2.06 11H6.12C6.56 12.73 8.13 14 9.99 14C11.85 14 13.42 12.73 13.86 11H17.92C17.45 14.95 14.08 18 10 18V18Z" fill="black"/>
<circle cx="10" cy="10" r="2" fill="#D9D9D9"/>
</svg>
