<?xml version="1.0" encoding="utf-8"?>
<!-- Generator: Adobe Illustrator 25.2.3, SVG Export Plug-In . SVG Version: 6.00 Build 0)  -->
<svg version="1.1" id="Layer_1" xmlns="http://www.w3.org/2000/svg" xmlns:xlink="http://www.w3.org/1999/xlink" x="0px" y="0px"
	 viewBox="0 0 320 122.8" style="enable-background:new 0 0 320 122.8;" xml:space="preserve">
<style type="text/css">
	.st0{fill:#E94D5F;}
	.st1{fill:url(#SVGID_1_);}
	.st2{fill:url(#SVGID_2_);}
	.st3{fill:url(#SVGID_3_);}
	.st4{fill:url(#SVGID_4_);}
	.st5{fill:url(#SVGID_5_);}
	.st6{fill:url(#SVGID_6_);}
	.st7{fill:url(#SVGID_7_);}
	.st8{fill:url(#SVGID_8_);}
	.st9{fill:url(#SVGID_9_);}
	.st10{fill:url(#SVGID_10_);}
	.st11{fill:url(#SVGID_11_);}
	.st12{fill:url(#SVGID_12_);}
	.st13{fill:url(#SVGID_13_);}
	.st14{fill:url(#SVGID_14_);}
	.st15{fill:#0C141F;}
</style>
<g>
	<g>
		<path class="st0" d="M309.6,110.9v7.9h-35.7v-7.9H309.6z"/>
	</g>
	<path class="st0" d="M270.6,92.3c0,9.6-7.8,17.3-17.3,17.3S236,101.8,236,92.3s7.8-17.3,17.3-17.3S270.6,82.7,270.6,92.3z"/>
	<linearGradient id="SVGID_1_" gradientUnits="userSpaceOnUse" x1="145.6009" y1="63.2722" x2="235.9584" y2="63.2722">
		<stop  offset="0" style="stop-color:#56509A"/>
		<stop  offset="1" style="stop-color:#E94D5F"/>
	</linearGradient>
	<path class="st1" d="M218.6,98.9c10.6-8.3,17.4-21.1,17.4-35.6s-6.8-27.3-17.4-35.6c-7.7-6-17.3-9.6-27.8-9.6
		c-25,0-45.2,20.2-45.2,45.2s20.2,45.2,45.2,45.2C201.3,108.5,210.9,104.9,218.6,98.9"/>
	<linearGradient id="SVGID_2_" gradientUnits="userSpaceOnUse" x1="10.4336" y1="56.3976" x2="100.7907" y2="56.3976">
		<stop  offset="0" style="stop-color:#2EAAE1"/>
		<stop  offset="1" style="stop-color:#4A63A9"/>
	</linearGradient>
	<path class="st2" d="M100.7,60.2V4.3c-12.5,0-23.4,6.6-29.5,16.5c-4.8-1.8-10.1-2.8-15.5-2.8c-25,0-45.2,20.2-45.2,45.2
		c0,25,20.2,45.2,45.2,45.2c10.5,0,20.1-3.6,27.8-9.6c10.6-8.3,17.4-21.1,17.4-35.6C100.8,62.2,100.8,61.2,100.7,60.2z"/>
	<linearGradient id="SVGID_3_" gradientUnits="userSpaceOnUse" x1="105.687" y1="73.7963" x2="140.3421" y2="73.7963">
		<stop  offset="0" style="stop-color:#4A63A9"/>
		<stop  offset="1" style="stop-color:#56509A"/>
	</linearGradient>
	<path class="st3" d="M122.9,39.1L122.9,39.1c-9.5,0-17.2,7.7-17.2,17.2v52.1c19.1,0,34.7-15.5,34.7-34.7V56.6
		C140.3,47,132.5,39.1,122.9,39.1z"/>
	<g>
		<linearGradient id="SVGID_4_" gradientUnits="userSpaceOnUse" x1="105.687" y1="21.6719" x2="140.3421" y2="21.6719">
			<stop  offset="0" style="stop-color:#4A63A9"/>
			<stop  offset="1" style="stop-color:#56509A"/>
		</linearGradient>
		<circle class="st4" cx="123" cy="21.7" r="17.3"/>
		<linearGradient id="SVGID_5_" gradientUnits="userSpaceOnUse" x1="105.3473" y1="21.6719" x2="140.6815" y2="21.6719">
			<stop  offset="0" style="stop-color:#4A63A9"/>
			<stop  offset="1" style="stop-color:#56509A"/>
		</linearGradient>
		<path class="st5" d="M123,39.3c-9.7,0-17.7-7.9-17.7-17.7S113.3,4,123,4s17.7,7.9,17.7,17.7S132.8,39.3,123,39.3z M123,4.7
			c-9.4,0-17,7.6-17,17s7.6,17,17,17s17-7.6,17-17S132.4,4.7,123,4.7z"/>
	</g>
</g>
</svg>
