<svg width="432" height="420" viewBox="0 0 432 420" fill="none" xmlns="http://www.w3.org/2000/svg">
<path opacity="0.3" d="M214 0C323.965 0 414.793 82.35 428 189H318.574C306.446 142.29 264.131 108 214 108C163.869 108 121.554 142.29 109.695 189H0C13.2065 82.35 104.035 0 214 0Z" fill="#F8F8F8"/>
<path opacity="0.3" d="M215.846 419.389C105.131 419.614 13.5143 337.035 3.32957e-06 229.875L110.172 229.651C122.479 276.572 165.152 310.948 215.625 310.845C266.098 310.743 308.632 276.194 320.476 229.224L430.92 229C417.841 336.214 326.56 419.165 215.846 419.389Z" fill="white"/>
<circle opacity="0.33" cx="214.5" cy="208.5" r="62.5" fill="#D9D9D9"/>
</svg>
