<svg xmlns="http://www.w3.org/2000/svg" xmlns:xlink="http://www.w3.org/1999/xlink" width="500" zoomAndPan="magnify" viewBox="0 0 375 374.999991" height="500" preserveAspectRatio="xMidYMid meet" version="1.0"><defs><g/><clipPath id="147524895b"><path d="M 2.6875 2.6875 L 373.023438 2.6875 L 373.023438 373.023438 L 2.6875 373.023438 Z M 2.6875 2.6875 " clip-rule="nonzero"/></clipPath><clipPath id="e61bbbd73a"><path d="M 15.261719 15.261719 L 360.003906 15.261719 L 360.003906 360.003906 L 15.261719 360.003906 Z M 15.261719 15.261719 " clip-rule="nonzero"/></clipPath><clipPath id="e37c6b9436"><path d="M 68.554688 68.554688 L 306.410156 68.554688 L 306.410156 306.410156 L 68.554688 306.410156 Z M 68.554688 68.554688 " clip-rule="nonzero"/></clipPath><clipPath id="79abba83ae"><path d="M 80.90625 80.90625 L 294.675781 80.90625 L 294.675781 294.675781 L 80.90625 294.675781 Z M 80.90625 80.90625 " clip-rule="nonzero"/></clipPath><clipPath id="b0f240a3d0"><path d="M 135 107.648438 L 240 107.648438 L 240 160 L 135 160 Z M 135 107.648438 " clip-rule="nonzero"/></clipPath><clipPath id="4c48c2bd68"><path d="M 135 252 L 164 252 L 164 267.222656 L 135 267.222656 Z M 135 252 " clip-rule="nonzero"/></clipPath><clipPath id="f310dd5f28"><path d="M 211 252 L 240 252 L 240 267.222656 L 211 267.222656 Z M 211 252 " clip-rule="nonzero"/></clipPath><clipPath id="d3666a1687"><path d="M 159 227 L 188 227 L 188 267.222656 L 159 267.222656 Z M 159 227 " clip-rule="nonzero"/></clipPath><clipPath id="2c13442d10"><path d="M 160 265 L 165 265 L 165 267.222656 L 160 267.222656 Z M 160 265 " clip-rule="nonzero"/></clipPath><clipPath id="de89495c3d"><path d="M 187 227 L 215 227 L 215 267.222656 L 187 267.222656 Z M 187 227 " clip-rule="nonzero"/></clipPath><clipPath id="70d73e2a75"><path d="M 206 265 L 215 265 L 215 267.222656 L 206 267.222656 Z M 206 265 " clip-rule="nonzero"/></clipPath><clipPath id="660e590acf"><path d="M 237 159 L 250.472656 159 L 250.472656 161 L 237 161 Z M 237 159 " clip-rule="nonzero"/></clipPath><clipPath id="7c0ad93993"><path d="M 124.019531 159 L 137 159 L 137 161 L 124.019531 161 Z M 124.019531 159 " clip-rule="nonzero"/></clipPath><clipPath id="43c13dfd5e"><path d="M 52.078125 180.417969 L 64.738281 180.417969 L 64.738281 192.859375 L 52.078125 192.859375 Z M 52.078125 180.417969 " clip-rule="nonzero"/></clipPath><clipPath id="6f9e674001"><path d="M 30.917969 186.796875 L 52.777344 186.796875 L 52.777344 204.484375 L 30.917969 204.484375 Z M 30.917969 186.796875 " clip-rule="nonzero"/></clipPath><clipPath id="e066e97970"><path d="M 343.464844 180.417969 L 356.125 180.417969 L 356.125 192.859375 L 343.464844 192.859375 Z M 343.464844 180.417969 " clip-rule="nonzero"/></clipPath><clipPath id="dab7f705e3"><path d="M 322.304688 186.796875 L 344.160156 186.796875 L 344.160156 204.484375 L 322.304688 204.484375 Z M 322.304688 186.796875 " clip-rule="nonzero"/></clipPath></defs><g clip-path="url(#147524895b)"><path fill="#ff914d" d="M 187.855469 2.6875 C 85.589844 2.6875 2.6875 85.589844 2.6875 187.855469 C 2.6875 290.121094 85.589844 373.023438 187.855469 373.023438 C 290.121094 373.023438 373.023438 290.121094 373.023438 187.855469 C 373.023438 85.589844 290.121094 2.6875 187.855469 2.6875 " fill-opacity="1" fill-rule="nonzero"/></g><g clip-path="url(#e61bbbd73a)"><path fill="#fff6f0" d="M 187.632812 15.261719 C 92.433594 15.261719 15.261719 92.433594 15.261719 187.632812 C 15.261719 282.832031 92.433594 360.003906 187.632812 360.003906 C 282.832031 360.003906 360.003906 282.832031 360.003906 187.632812 C 360.003906 92.433594 282.832031 15.261719 187.632812 15.261719 " fill-opacity="1" fill-rule="nonzero"/></g><g clip-path="url(#e37c6b9436)"><path fill="#ff914d" d="M 187.480469 68.554688 C 121.800781 68.554688 68.554688 121.800781 68.554688 187.480469 C 68.554688 253.164062 121.800781 306.410156 187.480469 306.410156 C 253.164062 306.410156 306.410156 253.164062 306.410156 187.480469 C 306.410156 121.800781 253.164062 68.554688 187.480469 68.554688 " fill-opacity="1" fill-rule="nonzero"/></g><g clip-path="url(#79abba83ae)"><path fill="#fff6f0" d="M 187.789062 80.90625 C 128.757812 80.90625 80.90625 128.757812 80.90625 187.789062 C 80.90625 246.820312 128.757812 294.675781 187.789062 294.675781 C 246.820312 294.675781 294.675781 246.820312 294.675781 187.789062 C 294.675781 128.757812 246.820312 80.90625 187.789062 80.90625 " fill-opacity="1" fill-rule="nonzero"/></g><g clip-path="url(#b0f240a3d0)"><path fill="#964716" d="M 140.535156 147.601562 L 140.664062 147.242188 L 140.5 146.898438 C 134.085938 133.257812 138.605469 113.8125 139.675781 109.730469 C 142.871094 110.203125 155.167969 112.570312 162.882812 121.703125 L 163.355469 122.253906 L 164.007812 121.933594 C 166.226562 120.847656 168.550781 119.925781 170.894531 119.1875 C 171.03125 119.140625 171.160156 119.105469 171.296875 119.0625 C 171.078125 118.796875 170.847656 118.542969 170.605469 118.289062 C 172.480469 117.6875 174.421875 117.179688 176.390625 116.789062 C 176.480469 117.089844 176.5625 117.402344 176.640625 117.699219 C 178.824219 117.261719 181.089844 116.960938 183.34375 116.800781 C 183.390625 116.800781 183.445312 116.800781 183.492188 116.789062 L 183.285156 115.855469 C 184.597656 115.761719 185.929688 115.71875 187.261719 115.71875 C 188.609375 115.71875 189.929688 115.761719 191.242188 115.855469 L 191.035156 116.789062 C 191.078125 116.789062 191.125 116.789062 191.183594 116.800781 C 193.449219 116.960938 195.699219 117.261719 197.882812 117.699219 C 197.964844 117.402344 198.046875 117.089844 198.136719 116.789062 C 200.113281 117.179688 202.046875 117.6875 203.917969 118.289062 C 203.679688 118.542969 203.460938 118.796875 203.230469 119.0625 C 203.367188 119.105469 203.503906 119.140625 203.632812 119.1875 C 205.976562 119.925781 208.289062 120.859375 210.507812 121.933594 L 211.160156 122.253906 L 211.632812 121.703125 C 219.34375 112.570312 231.644531 110.203125 234.839844 109.730469 C 235.910156 113.8125 240.425781 133.257812 234.011719 146.898438 L 233.851562 147.242188 L 233.980469 147.601562 C 235.230469 151.269531 235.933594 155.085938 236.070312 158.949219 C 236.691406 158.972656 237.324219 158.992188 237.945312 159.015625 C 237.816406 155.039062 237.128906 151.128906 235.875 147.347656 C 243.09375 131.46875 236.714844 109.363281 236.4375 108.417969 L 236.21875 107.679688 L 235.449219 107.75 C 234.816406 107.804688 220.09375 109.316406 210.691406 119.925781 C 208.585938 118.933594 206.414062 118.082031 204.207031 117.390625 C 202.296875 116.777344 200.320312 116.269531 198.320312 115.867188 C 196.035156 115.40625 193.675781 115.09375 191.308594 114.921875 C 189.941406 114.828125 188.585938 114.78125 187.261719 114.78125 C 185.941406 114.78125 184.585938 114.828125 183.21875 114.921875 C 180.859375 115.09375 178.503906 115.40625 176.214844 115.867188 C 174.214844 116.269531 172.226562 116.777344 170.332031 117.390625 C 168.136719 118.09375 165.953125 118.933594 163.847656 119.925781 C 154.445312 109.304688 139.71875 107.804688 139.085938 107.75 L 138.316406 107.679688 L 138.097656 108.417969 C 137.824219 109.363281 131.445312 131.46875 138.664062 147.347656 C 137.410156 151.128906 136.71875 155.039062 136.59375 159.015625 C 137.214844 158.992188 137.847656 158.960938 138.46875 158.949219 C 138.59375 155.085938 139.292969 151.269531 140.535156 147.601562 Z M 140.535156 147.601562 " fill-opacity="1" fill-rule="nonzero"/></g><path fill="#964716" d="M 234.277344 171.515625 C 232.105469 177.675781 227.976562 182.75 221.933594 186.679688 C 213.402344 192.214844 201.414062 195.144531 187.25 195.144531 C 173.089844 195.144531 161.101562 192.214844 152.570312 186.679688 C 146.523438 182.75 142.398438 177.675781 140.226562 171.515625 C 139.847656 171.703125 139.457031 171.886719 139.078125 172.070312 C 138.902344 172.152344 138.730469 172.242188 138.558594 172.324219 C 140.902344 178.78125 145.285156 184.191406 151.546875 188.261719 C 152.007812 188.558594 152.492188 188.847656 152.972656 189.136719 C 152.996094 188.929688 153.019531 188.710938 153.054688 188.503906 L 154.90625 188.769531 C 154.847656 189.21875 154.800781 189.679688 154.765625 190.140625 C 163.273438 194.648438 174.410156 197.023438 187.25 197.023438 C 200.089844 197.023438 211.21875 194.648438 219.734375 190.140625 C 219.703125 189.679688 219.65625 189.207031 219.597656 188.769531 L 221.449219 188.503906 C 221.484375 188.710938 221.507812 188.917969 221.53125 189.136719 C 222.011719 188.847656 222.484375 188.558594 222.953125 188.261719 C 229.21875 184.191406 233.597656 178.792969 235.945312 172.324219 C 235.773438 172.242188 235.597656 172.152344 235.425781 172.070312 C 235.046875 171.886719 234.65625 171.703125 234.277344 171.515625 Z M 234.277344 171.515625 " fill-opacity="1" fill-rule="nonzero"/><path fill="#964716" d="M 234.792969 169.914062 C 235.253906 170.203125 235.714844 170.492188 236.175781 170.800781 C 236.253906 170.859375 236.324219 170.917969 236.402344 170.976562 C 237.390625 167.828125 237.910156 164.4375 237.945312 160.839844 C 237.324219 160.839844 236.691406 160.839844 236.070312 160.828125 C 236.035156 164.054688 235.609375 167.089844 234.792969 169.914062 Z M 234.792969 169.914062 " fill-opacity="1" fill-rule="nonzero"/><path fill="#964716" d="M 139.707031 169.914062 C 138.890625 167.089844 138.46875 164.054688 138.433594 160.816406 C 137.8125 160.828125 137.179688 160.828125 136.558594 160.828125 C 136.605469 164.425781 137.121094 167.816406 138.097656 170.964844 C 138.179688 170.90625 138.25 170.847656 138.328125 170.789062 C 138.789062 170.492188 139.25 170.203125 139.707031 169.914062 Z M 139.707031 169.914062 " fill-opacity="1" fill-rule="nonzero"/><path fill="#964716" d="M 215.449219 124.941406 C 215.792969 124.609375 216.125 124.261719 216.472656 123.925781 C 217.875 122.625 219.402344 121.484375 221.035156 120.503906 C 222.644531 119.5 224.367188 118.667969 226.128906 117.953125 C 227 117.597656 227.898438 117.273438 228.792969 116.972656 C 229.378906 116.789062 229.96875 116.605469 230.566406 116.441406 C 230.507812 116.121094 230.449219 115.785156 230.390625 115.464844 L 231.53125 116.179688 C 231.207031 116.257812 230.886719 116.351562 230.566406 116.441406 C 231.414062 121.378906 231.945312 126.371094 231.886719 131.363281 C 231.863281 134.027344 231.632812 136.679688 231.152344 139.296875 L 230.945312 140.277344 C 230.875 140.601562 230.816406 140.9375 230.738281 141.257812 C 230.554688 141.894531 230.402344 142.550781 230.195312 143.183594 C 229.976562 143.820312 229.769531 144.453125 229.53125 145.085938 C 229.289062 145.722656 229.046875 146.355469 228.816406 146.988281 C 229.164062 146.402344 229.496094 145.8125 229.828125 145.226562 C 230.152344 144.625 230.449219 144.015625 230.761719 143.402344 C 231.046875 142.78125 231.277344 142.136719 231.53125 141.5 C 231.773438 140.855469 231.957031 140.199219 232.164062 139.539062 C 232.921875 136.898438 233.3125 134.167969 233.496094 131.433594 C 233.667969 128.699219 233.609375 125.957031 233.378906 123.222656 C 233.140625 120.503906 232.75 117.792969 232.207031 115.117188 L 232.011719 114.148438 L 231.070312 114.414062 C 229.164062 114.945312 227.289062 115.625 225.484375 116.453125 C 223.679688 117.273438 221.953125 118.277344 220.324219 119.417969 C 218.714844 120.582031 217.207031 121.898438 215.921875 123.398438 C 215.597656 123.777344 215.300781 124.167969 214.988281 124.550781 L 214.117188 125.726562 C 213.539062 126.511719 212.964844 127.292969 212.402344 128.101562 C 213.09375 127.410156 213.78125 126.71875 214.449219 126.015625 Z M 215.449219 124.941406 " fill-opacity="1" fill-rule="nonzero"/><path fill="#964716" d="M 230.390625 115.453125 C 230.449219 115.773438 230.507812 116.109375 230.566406 116.433594 C 230.886719 116.339844 231.207031 116.246094 231.53125 116.167969 Z M 230.390625 115.453125 " fill-opacity="1" fill-rule="nonzero"/><path fill="#964716" d="M 159.054688 124.929688 L 160.066406 125.980469 C 160.746094 126.683594 161.421875 127.375 162.125 128.066406 C 161.558594 127.269531 160.984375 126.476562 160.410156 125.691406 C 160.125 125.300781 159.835938 124.90625 159.539062 124.515625 C 159.226562 124.132812 158.929688 123.742188 158.605469 123.363281 C 157.320312 121.851562 155.8125 120.535156 154.191406 119.371094 C 152.570312 118.230469 150.835938 117.214844 149.03125 116.410156 C 147.226562 115.578125 145.351562 114.910156 143.445312 114.367188 L 142.5 114.101562 L 142.304688 115.082031 C 141.765625 117.757812 141.386719 120.46875 141.167969 123.199219 C 140.949219 125.921875 140.902344 128.667969 141.078125 131.398438 C 141.261719 134.132812 141.652344 136.867188 142.398438 139.507812 C 142.59375 140.164062 142.8125 140.820312 143.019531 141.464844 C 143.273438 142.101562 143.523438 142.746094 143.789062 143.367188 C 144.101562 143.980469 144.398438 144.589844 144.71875 145.191406 C 145.054688 145.777344 145.386719 146.367188 145.730469 146.957031 C 145.503906 146.320312 145.261719 145.6875 145.019531 145.050781 C 144.777344 144.417969 144.570312 143.785156 144.351562 143.148438 C 144.15625 142.515625 143.996094 141.859375 143.8125 141.222656 L 143.398438 139.265625 C 142.925781 136.644531 142.707031 133.984375 142.6875 131.332031 C 142.652344 128.667969 142.777344 126.003906 143.03125 123.351562 C 143.25 121.03125 143.570312 118.714844 143.960938 116.410156 C 143.640625 116.316406 143.316406 116.222656 142.996094 116.144531 L 144.132812 115.429688 C 144.078125 115.75 144.019531 116.085938 143.960938 116.410156 C 144.546875 116.582031 145.144531 116.753906 145.730469 116.9375 C 146.628906 117.238281 147.523438 117.5625 148.410156 117.917969 C 150.167969 118.632812 151.882812 119.464844 153.503906 120.46875 C 153.90625 120.710938 154.308594 120.976562 154.699219 121.242188 C 155.101562 121.492188 155.480469 121.78125 155.859375 122.070312 C 156.617188 122.648438 157.34375 123.269531 158.054688 123.902344 C 158.375 124.25 158.710938 124.597656 159.054688 124.929688 Z M 159.054688 124.929688 " fill-opacity="1" fill-rule="nonzero"/><path fill="#964716" d="M 142.960938 116.15625 C 143.285156 116.234375 143.605469 116.328125 143.925781 116.421875 C 143.984375 116.097656 144.03125 115.761719 144.101562 115.441406 Z M 142.960938 116.15625 " fill-opacity="1" fill-rule="nonzero"/><g clip-path="url(#4c48c2bd68)"><path fill="#964716" d="M 160.351562 265.09375 C 156.90625 265.046875 153.457031 265.035156 150.007812 265.023438 L 142.984375 265.023438 L 141.226562 265.035156 L 140.789062 265.035156 L 140.445312 265.023438 C 140.214844 265 139.996094 264.96875 139.777344 264.898438 C 138.902344 264.65625 138.132812 264.054688 137.675781 263.273438 C 137.445312 262.878906 137.28125 262.453125 137.226562 262.003906 C 137.214844 261.886719 137.203125 261.785156 137.191406 261.667969 L 137.191406 261.324219 C 137.214844 261.070312 137.226562 260.828125 137.28125 260.585938 C 137.457031 259.605469 137.914062 258.660156 138.546875 257.828125 C 139.179688 257 139.984375 256.296875 140.890625 255.753906 C 141.800781 255.222656 142.824219 254.84375 143.894531 254.636719 C 144.960938 254.414062 146.066406 254.359375 147.179688 254.402344 C 148.296875 254.460938 149.398438 254.636719 150.515625 254.878906 C 152.730469 255.339844 154.960938 256.054688 157.308594 256.492188 C 155.332031 255.152344 153.203125 254.070312 150.882812 253.402344 C 149.972656 253.148438 149.042969 252.953125 148.089844 252.835938 C 148.113281 252.859375 148.121094 252.871094 148.144531 252.894531 L 146.8125 254.21875 C 146.328125 253.734375 145.871094 253.226562 145.421875 252.71875 C 144.800781 252.742188 144.191406 252.8125 143.570312 252.917969 C 142.328125 253.125 141.121094 253.527344 139.984375 254.152344 C 138.859375 254.773438 137.847656 255.613281 137.042969 256.640625 C 136.238281 257.667969 135.617188 258.878906 135.339844 260.203125 C 135.261719 260.527344 135.238281 260.875 135.191406 261.207031 L 135.179688 261.75 C 135.179688 261.933594 135.203125 262.105469 135.226562 262.292969 C 135.316406 263.007812 135.546875 263.710938 135.902344 264.332031 C 136.617188 265.589844 137.824219 266.523438 139.203125 266.9375 C 139.546875 267.042969 139.902344 267.101562 140.261719 267.144531 L 140.800781 267.179688 L 141.238281 267.179688 L 142.996094 267.191406 L 150.019531 267.191406 C 154.398438 267.179688 158.789062 267.15625 163.167969 267.078125 C 162.605469 266.960938 162.066406 266.730469 161.59375 266.410156 C 161.089844 266.039062 160.675781 265.589844 160.351562 265.09375 Z M 160.351562 265.09375 " fill-opacity="1" fill-rule="nonzero"/></g><path fill="#964716" d="M 219.804688 191.222656 L 219.828125 191.570312 C 219.851562 192.007812 219.886719 192.457031 219.921875 192.882812 C 220.507812 199.492188 224.140625 205.210938 227.667969 210.746094 L 228.082031 211.402344 C 232.371094 218.148438 234.597656 224.375 234.886719 230.417969 C 235.058594 234.097656 234.554688 237.695312 233.335938 241.421875 C 231.898438 245.800781 229.574219 249.628906 226.4375 252.824219 C 227.3125 252.71875 228.207031 252.664062 229.105469 252.710938 C 231.78125 249.617188 233.804688 246.03125 235.117188 242.007812 C 236.390625 238.109375 236.945312 234.179688 236.761719 230.328125 C 236.460938 223.9375 234.140625 217.421875 229.65625 210.390625 L 229.242188 209.730469 C 225.839844 204.394531 222.335938 198.871094 221.78125 192.710938 C 221.746094 192.296875 221.726562 191.882812 221.691406 191.453125 L 221.667969 191.109375 C 221.632812 190.464844 221.585938 189.792969 221.519531 189.125 C 220.933594 189.472656 220.335938 189.804688 219.726562 190.128906 C 219.757812 190.507812 219.78125 190.867188 219.804688 191.222656 Z M 219.804688 191.222656 " fill-opacity="1" fill-rule="nonzero"/><path fill="#964716" d="M 219.597656 188.769531 C 219.65625 189.21875 219.703125 189.679688 219.734375 190.140625 C 220.34375 189.816406 220.941406 189.484375 221.53125 189.136719 C 221.507812 188.929688 221.484375 188.722656 221.449219 188.503906 Z M 219.597656 188.769531 " fill-opacity="1" fill-rule="nonzero"/><path fill="#964716" d="M 148.078125 252.824219 C 144.9375 249.628906 142.617188 245.800781 141.179688 241.429688 C 139.960938 237.707031 139.457031 234.109375 139.628906 230.429688 C 139.914062 224.386719 142.144531 218.160156 146.433594 211.414062 L 146.847656 210.757812 C 150.363281 205.222656 154.007812 199.503906 154.582031 192.894531 C 154.617188 192.46875 154.652344 192.019531 154.675781 191.582031 L 154.699219 191.234375 C 154.722656 190.878906 154.742188 190.519531 154.765625 190.152344 C 154.15625 189.828125 153.558594 189.496094 152.972656 189.148438 C 152.90625 189.804688 152.871094 190.472656 152.824219 191.132812 L 152.800781 191.476562 C 152.777344 191.90625 152.753906 192.320312 152.710938 192.734375 C 152.167969 198.890625 148.652344 204.414062 145.25 209.753906 L 144.835938 210.414062 C 140.363281 217.445312 138.042969 223.972656 137.730469 230.351562 C 137.546875 234.203125 138.097656 238.132812 139.375 242.03125 C 140.6875 246.042969 142.707031 249.628906 145.386719 252.71875 C 146.308594 252.664062 147.203125 252.710938 148.078125 252.824219 Z M 148.078125 252.824219 " fill-opacity="1" fill-rule="nonzero"/><path fill="#964716" d="M 154.90625 188.769531 L 153.054688 188.503906 C 153.019531 188.710938 152.996094 188.917969 152.972656 189.136719 C 153.558594 189.484375 154.15625 189.816406 154.765625 190.140625 C 154.800781 189.679688 154.847656 189.21875 154.90625 188.769531 Z M 154.90625 188.769531 " fill-opacity="1" fill-rule="nonzero"/><path fill="#964716" d="M 148.132812 252.882812 C 148.113281 252.859375 148.101562 252.847656 148.078125 252.824219 C 147.203125 252.71875 146.308594 252.675781 145.410156 252.710938 C 145.859375 253.226562 146.316406 253.722656 146.800781 254.207031 Z M 148.132812 252.882812 " fill-opacity="1" fill-rule="nonzero"/><path fill="#964716" d="M 167.871094 157.65625 C 168.214844 157.65625 168.5625 157.585938 168.882812 157.460938 C 170.550781 156.835938 171.835938 154.714844 172.125 152.050781 C 172.171875 151.671875 172.191406 151.28125 172.191406 150.886719 C 172.191406 147.152344 170.261719 144.105469 167.871094 144.105469 C 165.480469 144.105469 163.550781 147.140625 163.550781 150.886719 C 163.550781 154.636719 165.480469 157.65625 167.871094 157.65625 Z M 167.871094 157.65625 " fill-opacity="1" fill-rule="nonzero"/><path fill="#964716" d="M 206.632812 157.65625 C 206.976562 157.65625 207.320312 157.585938 207.644531 157.460938 C 209.300781 156.835938 210.597656 154.714844 210.886719 152.050781 C 210.929688 151.671875 210.953125 151.28125 210.953125 150.886719 C 210.953125 147.152344 209.023438 144.117188 206.632812 144.117188 C 204.242188 144.117188 202.308594 147.152344 202.308594 150.886719 C 202.308594 154.625 204.253906 157.65625 206.632812 157.65625 Z M 206.632812 157.65625 " fill-opacity="1" fill-rule="nonzero"/><path fill="#964716" d="M 187.632812 158.277344 C 189.160156 158.070312 190.355469 156.59375 190.355469 155.671875 C 190.355469 154.667969 188.964844 154.207031 187.261719 154.207031 C 185.550781 154.207031 184.171875 154.667969 184.171875 155.671875 C 184.171875 156.59375 185.367188 158.070312 186.894531 158.277344 C 187.035156 158.070312 187.160156 157.839844 187.261719 157.585938 C 187.367188 157.828125 187.492188 158.058594 187.632812 158.277344 Z M 187.632812 158.277344 " fill-opacity="1" fill-rule="nonzero"/><path fill="#964716" d="M 183.847656 161.933594 C 184.136719 161.933594 184.433594 161.898438 184.710938 161.832031 C 184.699219 161.726562 184.699219 161.625 184.699219 161.519531 C 184.699219 161.300781 184.710938 161.082031 184.734375 160.875 C 185.816406 160.585938 186.675781 159.765625 187.042969 158.730469 C 187.035156 158.578125 187.042969 158.441406 187.054688 158.300781 C 187 158.300781 186.929688 158.289062 186.871094 158.289062 C 186.539062 158.808594 186.148438 159.203125 185.734375 159.488281 C 185.136719 159.882812 184.492188 160.066406 183.847656 160.066406 C 183.207031 160.066406 182.5625 159.882812 181.964844 159.488281 C 181.367188 159.085938 180.835938 158.488281 180.445312 157.597656 C 180.042969 158.5 180.25 159.675781 180.917969 160.527344 C 181.585938 161.382812 182.710938 161.933594 183.847656 161.933594 Z M 183.847656 161.933594 " fill-opacity="1" fill-rule="nonzero"/><path fill="#964716" d="M 187.25 157.574219 C 187.136719 157.828125 187.011719 158.058594 186.882812 158.265625 C 186.941406 158.277344 187.011719 158.277344 187.066406 158.277344 C 187.089844 158.046875 187.148438 157.804688 187.25 157.574219 Z M 187.25 157.574219 " fill-opacity="1" fill-rule="nonzero"/><path fill="#964716" d="M 187.445312 158.71875 C 187.816406 159.765625 188.675781 160.574219 189.757812 160.875 C 189.78125 161.082031 189.792969 161.300781 189.792969 161.519531 C 189.792969 161.625 189.792969 161.726562 189.78125 161.832031 C 190.066406 161.898438 190.355469 161.933594 190.644531 161.933594 C 191.78125 161.945312 192.90625 161.390625 193.5625 160.515625 C 194.230469 159.652344 194.4375 158.488281 194.035156 157.585938 C 193.644531 158.476562 193.113281 159.074219 192.515625 159.476562 C 191.917969 159.871094 191.273438 160.054688 190.632812 160.054688 C 189.988281 160.054688 189.34375 159.871094 188.746094 159.476562 C 188.320312 159.191406 187.929688 158.808594 187.609375 158.277344 C 187.550781 158.289062 187.480469 158.289062 187.425781 158.300781 C 187.457031 158.429688 187.457031 158.578125 187.445312 158.71875 Z M 187.445312 158.71875 " fill-opacity="1" fill-rule="nonzero"/><path fill="#964716" d="M 187.433594 158.289062 C 187.492188 158.289062 187.5625 158.277344 187.621094 158.265625 C 187.480469 158.058594 187.355469 157.828125 187.238281 157.574219 C 187.355469 157.804688 187.414062 158.046875 187.433594 158.289062 Z M 187.433594 158.289062 " fill-opacity="1" fill-rule="nonzero"/><path fill="#964716" d="M 187.066406 158.289062 C 187.054688 158.429688 187.054688 158.578125 187.054688 158.71875 C 187.101562 158.578125 187.148438 158.441406 187.183594 158.289062 C 187.136719 158.300781 187.101562 158.289062 187.066406 158.289062 Z M 187.066406 158.289062 " fill-opacity="1" fill-rule="nonzero"/><path fill="#964716" d="M 187.445312 158.71875 C 187.457031 158.578125 187.445312 158.429688 187.433594 158.289062 C 187.402344 158.289062 187.367188 158.289062 187.320312 158.300781 C 187.355469 158.441406 187.402344 158.578125 187.445312 158.71875 Z M 187.445312 158.71875 " fill-opacity="1" fill-rule="nonzero"/><path fill="#964716" d="M 187.238281 157.792969 L 187.25 157.792969 C 187.261719 157.96875 187.285156 158.128906 187.320312 158.289062 C 187.355469 158.289062 187.390625 158.289062 187.433594 158.277344 C 187.414062 158.023438 187.34375 157.792969 187.25 157.5625 C 187.148438 157.78125 187.089844 158.023438 187.066406 158.277344 C 187.101562 158.277344 187.136719 158.277344 187.183594 158.289062 C 187.207031 158.140625 187.230469 157.96875 187.238281 157.792969 Z M 187.238281 157.792969 " fill-opacity="1" fill-rule="nonzero"/><path fill="#964716" d="M 187.722656 160.515625 C 187.515625 160.25 187.367188 159.960938 187.25 159.652344 C 187.136719 159.949219 186.988281 160.25 186.78125 160.515625 C 186.285156 161.160156 185.539062 161.632812 184.722656 161.832031 C 184.835938 163.734375 185.929688 165.230469 187.261719 165.230469 C 188.597656 165.230469 189.6875 163.734375 189.804688 161.832031 C 188.964844 161.632812 188.21875 161.160156 187.722656 160.515625 Z M 187.722656 160.515625 " fill-opacity="1" fill-rule="nonzero"/><path fill="#964716" d="M 186.78125 160.515625 C 186.988281 160.25 187.136719 159.960938 187.25 159.652344 C 187.136719 159.351562 187.066406 159.039062 187.054688 158.730469 C 186.6875 159.777344 185.828125 160.585938 184.746094 160.875 C 184.722656 161.082031 184.710938 161.300781 184.710938 161.519531 C 184.710938 161.625 184.710938 161.726562 184.722656 161.832031 C 185.539062 161.632812 186.285156 161.160156 186.78125 160.515625 Z M 186.78125 160.515625 " fill-opacity="1" fill-rule="nonzero"/><path fill="#964716" d="M 189.757812 160.875 C 188.675781 160.585938 187.816406 159.765625 187.445312 158.71875 C 187.433594 159.027344 187.367188 159.339844 187.25 159.652344 C 187.367188 159.960938 187.527344 160.25 187.722656 160.515625 C 188.21875 161.160156 188.964844 161.632812 189.78125 161.832031 C 189.792969 161.726562 189.792969 161.625 189.792969 161.519531 C 189.804688 161.289062 189.78125 161.082031 189.757812 160.875 Z M 189.757812 160.875 " fill-opacity="1" fill-rule="nonzero"/><path fill="#964716" d="M 187.445312 158.71875 C 187.402344 158.578125 187.355469 158.441406 187.332031 158.300781 C 187.308594 158.300781 187.285156 158.300781 187.25 158.300781 C 187.230469 158.300781 187.195312 158.300781 187.171875 158.300781 C 187.136719 158.453125 187.101562 158.589844 187.042969 158.730469 C 187.054688 159.039062 187.125 159.351562 187.238281 159.652344 C 187.367188 159.339844 187.433594 159.027344 187.445312 158.71875 Z M 187.445312 158.71875 " fill-opacity="1" fill-rule="nonzero"/><path fill="#964716" d="M 187.238281 157.792969 C 187.230469 157.96875 187.207031 158.128906 187.171875 158.289062 C 187.195312 158.289062 187.21875 158.289062 187.25 158.289062 C 187.273438 158.289062 187.308594 158.289062 187.332031 158.289062 C 187.296875 158.128906 187.273438 157.957031 187.261719 157.792969 Z M 187.238281 157.792969 " fill-opacity="1" fill-rule="nonzero"/><g clip-path="url(#f310dd5f28)"><path fill="#964716" d="M 226.367188 252.882812 C 226.390625 252.859375 226.402344 252.847656 226.414062 252.824219 C 225.621094 252.929688 224.839844 253.066406 224.082031 253.261719 C 221.585938 253.929688 219.300781 255.050781 217.195312 256.480469 C 218.449219 256.261719 219.667969 255.925781 220.863281 255.613281 L 222.644531 255.164062 C 223.242188 255.027344 223.828125 254.886719 224.414062 254.773438 C 226.757812 254.277344 229.195312 254.183594 231.414062 254.820312 C 232.53125 255.128906 233.554688 255.636719 234.4375 256.320312 C 235.324219 257 236.070312 257.863281 236.585938 258.832031 C 236.839844 259.316406 237.035156 259.824219 237.164062 260.34375 C 237.21875 260.609375 237.265625 260.863281 237.289062 261.128906 C 237.324219 261.402344 237.3125 261.621094 237.289062 261.863281 C 237.195312 262.820312 236.65625 263.722656 235.886719 264.308594 C 235.496094 264.597656 235.058594 264.816406 234.585938 264.933594 C 234.359375 264.988281 234.117188 265.023438 233.875 265.035156 L 232.988281 265.035156 L 229.253906 265.023438 L 221.769531 265.023438 L 214.289062 265.070312 L 214.160156 265.070312 C 213.839844 265.589844 213.425781 266.027344 212.929688 266.375 C 212.4375 266.707031 211.886719 266.9375 211.300781 267.054688 C 211.242188 267.066406 211.183594 267.078125 211.125 267.078125 L 214.289062 267.101562 L 221.769531 267.144531 L 229.253906 267.144531 L 232.988281 267.136719 L 233.691406 267.136719 L 233.96875 267.125 C 234.347656 267.101562 234.726562 267.042969 235.09375 266.949219 C 235.828125 266.765625 236.53125 266.417969 237.140625 265.957031 C 238.359375 265.035156 239.175781 263.582031 239.300781 262.050781 C 239.335938 261.667969 239.324219 261.265625 239.277344 260.917969 C 239.242188 260.5625 239.175781 260.203125 239.09375 259.859375 C 238.921875 259.167969 238.644531 258.496094 238.3125 257.886719 C 237.632812 256.652344 236.691406 255.605469 235.578125 254.796875 C 234.460938 253.976562 233.183594 253.414062 231.886719 253.089844 C 230.957031 252.859375 230.023438 252.730469 229.082031 252.699219 C 228.632812 253.203125 228.171875 253.710938 227.691406 254.195312 Z M 226.367188 252.882812 " fill-opacity="1" fill-rule="nonzero"/></g><path fill="#964716" d="M 226.414062 252.824219 C 226.390625 252.847656 226.378906 252.859375 226.367188 252.882812 L 227.703125 254.207031 C 228.183594 253.722656 228.644531 253.214844 229.09375 252.710938 C 228.183594 252.675781 227.300781 252.71875 226.414062 252.824219 Z M 226.414062 252.824219 " fill-opacity="1" fill-rule="nonzero"/><path fill="#964716" d="M 167.273438 235.828125 L 166.617188 233.09375 L 166.042969 230.339844 L 165.550781 227.570312 L 165.136719 224.792969 L 164.8125 222 C 164.746094 221.066406 164.640625 220.132812 164.527344 219.199219 C 164.445312 218.265625 164.332031 217.332031 164.191406 216.386719 C 164.078125 215.453125 163.953125 214.503906 163.746094 213.546875 C 163.550781 214.496094 163.410156 215.441406 163.308594 216.398438 C 163.226562 217.355469 163.191406 218.300781 163.167969 219.257812 C 163.179688 220.214844 163.214844 221.171875 163.261719 222.117188 L 163.492188 224.976562 L 163.8125 227.824219 L 164.226562 230.660156 L 164.746094 233.488281 L 165.355469 236.289062 C 166.226562 240.011719 167.355469 243.679688 168.722656 247.253906 C 169.835938 250.148438 171.101562 252.984375 172.539062 255.71875 C 172.8125 255.789062 173.089844 255.855469 173.355469 255.925781 C 173.953125 256.085938 174.539062 256.273438 175.101562 256.503906 C 173.457031 253.238281 171.953125 249.90625 170.652344 246.503906 C 169.332031 243.023438 168.191406 239.449219 167.273438 235.828125 Z M 167.273438 235.828125 " fill-opacity="1" fill-rule="nonzero"/><g clip-path="url(#d3666a1687)"><path fill="#964716" d="M 186.539062 262.359375 L 186.804688 259.640625 L 187.066406 256.917969 C 187.125 256.328125 187.183594 255.742188 187.25 255.152344 C 187.21875 254.84375 187.183594 254.519531 187.136719 254.207031 C 186.90625 252.398438 186.664062 250.597656 186.390625 248.789062 C 185.847656 245.179688 185.226562 241.59375 184.527344 238.019531 C 184.160156 236.230469 183.824219 234.445312 183.367188 232.679688 C 182.894531 230.914062 182.320312 229.183594 181.492188 227.511719 C 181.492188 229.382812 181.710938 231.179688 181.988281 232.96875 C 182.285156 234.753906 182.652344 236.519531 182.953125 238.304688 C 183.585938 241.871094 184.136719 245.445312 184.597656 249.03125 C 184.828125 250.816406 185.042969 252.617188 185.226562 254.414062 C 185.332031 255.316406 185.414062 256.214844 185.480469 257.113281 L 185.941406 262.511719 C 186 263.179688 185.792969 263.789062 185.367188 264.261719 C 184.953125 264.734375 184.34375 265.011719 183.722656 265.023438 L 164.089844 265.023438 C 163.917969 265.023438 163.765625 265.011719 163.617188 264.976562 C 163.320312 264.921875 163.019531 264.792969 162.765625 264.621094 C 162.238281 264.273438 161.882812 263.710938 161.789062 263.109375 C 161.789062 263.03125 161.765625 262.960938 161.765625 262.878906 L 161.765625 262.648438 C 161.789062 262.464844 161.800781 262.28125 161.835938 262.105469 C 161.90625 261.738281 162.007812 261.378906 162.167969 261.035156 C 162.480469 260.34375 162.953125 259.695312 163.515625 259.15625 C 164.652344 258.058594 166.203125 257.449219 167.835938 257.253906 C 169.480469 257.054688 171.191406 257.265625 172.859375 257.703125 C 174.527344 258.164062 176.171875 258.832031 178.195312 258.671875 C 177.308594 257.632812 176.238281 256.988281 175.078125 256.515625 C 175.125 256.59375 175.160156 256.675781 175.203125 256.757812 L 173.550781 257.644531 C 173.191406 257.011719 172.847656 256.363281 172.503906 255.71875 C 170.929688 255.351562 169.273438 255.164062 167.605469 255.351562 C 166.628906 255.453125 165.652344 255.683594 164.722656 256.066406 C 163.789062 256.445312 162.90625 257 162.148438 257.703125 C 161.398438 258.394531 160.753906 259.234375 160.308594 260.191406 C 160.078125 260.664062 159.917969 261.183594 159.800781 261.703125 C 159.746094 261.96875 159.722656 262.234375 159.6875 262.5 C 159.675781 262.636719 159.675781 262.800781 159.675781 262.949219 C 159.675781 263.097656 159.699219 263.25 159.710938 263.398438 C 159.789062 264 159.996094 264.574219 160.320312 265.082031 C 161.550781 265.09375 162.777344 265.117188 164.019531 265.140625 L 164.019531 267.019531 C 163.722656 267.019531 163.421875 267.03125 163.125 267.03125 C 163.148438 267.03125 163.160156 267.042969 163.179688 267.042969 C 163.332031 267.066406 163.46875 267.089844 163.617188 267.113281 C 163.765625 267.125 163.929688 267.136719 164.054688 267.136719 L 181.011719 267.136719 L 183.757812 267.113281 C 184.941406 267.089844 186.113281 266.523438 186.882812 265.625 C 187.011719 265.484375 187.113281 265.335938 187.21875 265.175781 C 186.988281 264.839844 186.816406 264.472656 186.6875 264.078125 C 186.539062 263.535156 186.492188 262.914062 186.539062 262.359375 Z M 186.539062 262.359375 " fill-opacity="1" fill-rule="nonzero"/></g><g clip-path="url(#2c13442d10)"><path fill="#964716" d="M 164.054688 265.140625 C 162.824219 265.117188 161.59375 265.09375 160.351562 265.082031 C 160.664062 265.589844 161.089844 266.027344 161.570312 266.363281 C 162.042969 266.683594 162.582031 266.914062 163.148438 267.03125 C 163.445312 267.03125 163.746094 267.019531 164.042969 267.019531 L 164.042969 265.140625 Z M 164.054688 265.140625 " fill-opacity="1" fill-rule="nonzero"/></g><path fill="#964716" d="M 172.539062 255.730469 C 172.871094 256.375 173.214844 257.023438 173.585938 257.65625 L 175.238281 256.769531 C 175.195312 256.6875 175.160156 256.605469 175.113281 256.527344 C 174.550781 256.296875 173.964844 256.109375 173.367188 255.949219 C 173.078125 255.867188 172.8125 255.800781 172.539062 255.730469 Z M 172.539062 255.730469 " fill-opacity="1" fill-rule="nonzero"/><path fill="#964716" d="M 209.160156 236.300781 L 209.769531 233.496094 L 210.289062 230.671875 L 210.703125 227.835938 L 211.023438 224.988281 L 211.253906 222.128906 C 211.300781 221.171875 211.332031 220.226562 211.34375 219.269531 C 211.320312 218.3125 211.289062 217.355469 211.207031 216.410156 C 211.105469 215.453125 210.964844 214.503906 210.769531 213.558594 C 210.5625 214.503906 210.425781 215.453125 210.320312 216.398438 C 210.171875 217.332031 210.070312 218.277344 209.988281 219.210938 C 209.875 220.144531 209.78125 221.078125 209.703125 222.011719 L 209.378906 224.804688 L 208.964844 227.582031 L 208.472656 230.351562 L 207.898438 233.105469 L 207.242188 235.839844 C 206.320312 239.472656 205.183594 243.035156 203.851562 246.527344 C 202.550781 249.941406 201.058594 253.273438 199.402344 256.527344 C 199.964844 256.296875 200.550781 256.109375 201.148438 255.949219 C 201.414062 255.867188 201.6875 255.8125 201.964844 255.742188 C 203.402344 252.996094 204.679688 250.171875 205.78125 247.277344 C 207.160156 243.691406 208.277344 240.023438 209.160156 236.300781 Z M 209.160156 236.300781 " fill-opacity="1" fill-rule="nonzero"/><g clip-path="url(#de89495c3d)"><path fill="#964716" d="M 206.804688 267.03125 L 206.804688 265.140625 L 210.539062 265.09375 L 214.148438 265.070312 C 214.460938 264.5625 214.667969 264 214.746094 263.410156 C 214.757812 263.261719 214.78125 263.109375 214.78125 262.960938 C 214.78125 262.8125 214.78125 262.660156 214.769531 262.511719 C 214.734375 262.246094 214.714844 261.96875 214.65625 261.714844 C 214.550781 261.183594 214.378906 260.675781 214.148438 260.203125 C 213.714844 259.246094 213.070312 258.40625 212.3125 257.714844 C 211.5625 257.023438 210.679688 256.46875 209.734375 256.078125 C 208.804688 255.695312 207.828125 255.464844 206.851562 255.363281 C 205.183594 255.1875 203.527344 255.363281 201.953125 255.730469 C 201.621094 256.375 201.277344 257.023438 200.90625 257.65625 L 199.253906 256.769531 C 199.296875 256.6875 199.332031 256.605469 199.378906 256.527344 C 198.21875 257 197.148438 257.644531 196.261719 258.683594 C 198.296875 258.84375 199.929688 258.175781 201.597656 257.714844 C 203.277344 257.277344 204.976562 257.066406 206.621094 257.265625 C 208.265625 257.460938 209.816406 258.070312 210.941406 259.167969 C 211.507812 259.707031 211.988281 260.34375 212.289062 261.046875 C 212.449219 261.390625 212.550781 261.75 212.621094 262.117188 C 212.667969 262.304688 212.667969 262.488281 212.691406 262.660156 L 212.691406 262.890625 C 212.691406 262.972656 212.679688 263.042969 212.667969 263.121094 C 212.585938 263.722656 212.21875 264.285156 211.691406 264.632812 C 211.4375 264.804688 211.136719 264.933594 210.839844 264.988281 C 210.679688 265.023438 210.539062 265.023438 210.367188 265.035156 L 193.414062 265.035156 L 190.722656 265.046875 C 190.101562 265.035156 189.492188 264.757812 189.078125 264.285156 C 188.652344 263.8125 188.445312 263.203125 188.503906 262.535156 L 188.964844 257.136719 C 189.042969 256.238281 189.113281 255.339844 189.21875 254.4375 C 189.402344 252.640625 189.621094 250.839844 189.847656 249.054688 C 190.308594 245.46875 190.859375 241.894531 191.492188 238.328125 C 191.804688 236.542969 192.171875 234.777344 192.457031 232.992188 C 192.734375 231.203125 192.953125 229.394531 192.953125 227.535156 C 192.125 229.207031 191.550781 230.9375 191.078125 232.703125 C 190.621094 234.464844 190.285156 236.253906 189.917969 238.042969 C 189.207031 241.617188 188.585938 245.203125 188.054688 248.8125 C 187.78125 250.609375 187.539062 252.421875 187.308594 254.230469 C 187.261719 254.542969 187.230469 254.867188 187.195312 255.175781 C 187.261719 255.765625 187.320312 256.351562 187.378906 256.941406 L 187.640625 259.664062 L 187.90625 262.382812 C 187.964844 262.9375 187.90625 263.558594 187.722656 264.125 C 187.597656 264.515625 187.425781 264.875 187.195312 265.21875 C 187.296875 265.371094 187.414062 265.53125 187.527344 265.671875 C 188.296875 266.570312 189.46875 267.125 190.652344 267.15625 L 193.402344 267.179688 L 210.355469 267.179688 C 210.484375 267.179688 210.644531 267.167969 210.792969 267.15625 C 210.886719 267.144531 210.976562 267.136719 211.070312 267.125 L 210.496094 267.125 Z M 206.804688 267.03125 " fill-opacity="1" fill-rule="nonzero"/></g><g clip-path="url(#70d73e2a75)"><path fill="#964716" d="M 212.917969 266.375 C 213.414062 266.039062 213.839844 265.589844 214.148438 265.070312 L 210.539062 265.09375 L 206.804688 265.140625 L 206.804688 267.019531 L 210.539062 267.066406 L 211.113281 267.066406 C 211.171875 267.054688 211.230469 267.042969 211.289062 267.042969 C 211.875 266.9375 212.4375 266.707031 212.917969 266.375 Z M 212.917969 266.375 " fill-opacity="1" fill-rule="nonzero"/></g><path fill="#964716" d="M 187.964844 262.359375 L 187.699219 259.640625 L 187.433594 256.917969 C 187.378906 256.328125 187.320312 255.742188 187.25 255.152344 C 187.183594 255.742188 187.125 256.328125 187.066406 256.917969 L 186.804688 259.640625 L 186.539062 262.359375 C 186.480469 262.914062 186.539062 263.535156 186.722656 264.101562 C 186.847656 264.496094 187.023438 264.851562 187.25 265.199219 C 187.480469 264.863281 187.652344 264.496094 187.78125 264.101562 C 187.964844 263.535156 188.011719 262.914062 187.964844 262.359375 Z M 187.964844 262.359375 " fill-opacity="1" fill-rule="nonzero"/><path fill="#964716" d="M 199.402344 256.527344 C 199.355469 256.605469 199.320312 256.6875 199.273438 256.769531 L 200.929688 257.65625 C 201.285156 257.023438 201.632812 256.375 201.976562 255.730469 C 201.699219 255.800781 201.425781 255.867188 201.160156 255.9375 C 200.550781 256.097656 199.964844 256.296875 199.402344 256.527344 Z M 199.402344 256.527344 " fill-opacity="1" fill-rule="nonzero"/><path fill="#964716" d="M 226.414062 158.914062 C 223.738281 159.003906 221.058594 159.132812 218.367188 159.464844 C 221.035156 159.917969 223.703125 160.183594 226.378906 160.390625 C 229.046875 160.585938 231.726562 160.710938 234.402344 160.78125 C 234.957031 160.792969 235.519531 160.804688 236.070312 160.816406 C 236.070312 160.664062 236.082031 160.527344 236.082031 160.378906 C 236.082031 159.90625 236.070312 159.433594 236.046875 158.960938 C 235.519531 158.9375 234.980469 158.925781 234.449219 158.914062 C 231.773438 158.84375 229.09375 158.84375 226.414062 158.914062 Z M 226.414062 158.914062 " fill-opacity="1" fill-rule="nonzero"/><g clip-path="url(#660e590acf)"><path fill="#964716" d="M 237.945312 160.828125 C 239.4375 160.828125 240.933594 160.816406 242.425781 160.769531 C 245.105469 160.6875 247.785156 160.550781 250.472656 160.214844 C 247.808594 159.753906 245.140625 159.5 242.460938 159.292969 C 240.945312 159.179688 239.4375 159.097656 237.921875 159.027344 C 237.933594 159.476562 237.945312 159.929688 237.945312 160.378906 C 237.957031 160.527344 237.945312 160.675781 237.945312 160.828125 Z M 237.945312 160.828125 " fill-opacity="1" fill-rule="nonzero"/></g><path fill="#964716" d="M 236.082031 160.367188 C 236.082031 160.515625 236.082031 160.664062 236.070312 160.804688 C 236.691406 160.816406 237.324219 160.816406 237.945312 160.816406 C 237.945312 160.664062 237.957031 160.515625 237.957031 160.355469 C 237.957031 159.90625 237.945312 159.457031 237.933594 159.003906 C 237.3125 158.980469 236.679688 158.949219 236.058594 158.9375 C 236.070312 159.421875 236.082031 159.894531 236.082031 160.367188 Z M 236.082031 160.367188 " fill-opacity="1" fill-rule="nonzero"/><path fill="#964716" d="M 225.425781 165.890625 C 223.519531 165.382812 221.574219 165.023438 219.585938 164.933594 C 221.378906 165.773438 223.171875 166.511719 224.945312 167.285156 C 226.714844 168.046875 228.472656 168.808594 230.21875 169.601562 C 231.574219 170.226562 232.933594 170.859375 234.277344 171.515625 C 234.460938 170.988281 234.632812 170.457031 234.792969 169.914062 C 233.578125 169.164062 232.300781 168.496094 231 167.894531 C 229.195312 167.078125 227.335938 166.410156 225.425781 165.890625 Z M 225.425781 165.890625 " fill-opacity="1" fill-rule="nonzero"/><path fill="#964716" d="M 240.679688 174.652344 C 239.402344 173.246094 237.945312 172.046875 236.402344 170.976562 C 236.265625 171.4375 236.105469 171.886719 235.945312 172.335938 C 237.496094 173.097656 239.058594 173.890625 240.679688 174.652344 Z M 240.679688 174.652344 " fill-opacity="1" fill-rule="nonzero"/><path fill="#964716" d="M 234.792969 169.914062 C 234.632812 170.457031 234.460938 171 234.277344 171.515625 C 234.65625 171.703125 235.046875 171.886719 235.425781 172.070312 C 235.597656 172.152344 235.773438 172.242188 235.945312 172.324219 C 236.105469 171.875 236.265625 171.425781 236.402344 170.964844 C 236.324219 170.90625 236.253906 170.847656 236.175781 170.789062 C 235.714844 170.492188 235.253906 170.203125 234.792969 169.914062 Z M 234.792969 169.914062 " fill-opacity="1" fill-rule="nonzero"/><path fill="#964716" d="M 148.121094 160.390625 C 150.789062 160.183594 153.46875 159.917969 156.136719 159.464844 C 153.457031 159.132812 150.765625 159.003906 148.089844 158.914062 C 145.410156 158.832031 142.730469 158.832031 140.066406 158.902344 C 139.535156 158.914062 138.996094 158.9375 138.46875 158.949219 C 138.457031 159.421875 138.433594 159.894531 138.433594 160.367188 C 138.433594 160.515625 138.433594 160.664062 138.445312 160.804688 C 138.996094 160.792969 139.558594 160.792969 140.109375 160.769531 C 142.777344 160.710938 145.445312 160.597656 148.121094 160.390625 Z M 148.121094 160.390625 " fill-opacity="1" fill-rule="nonzero"/><g clip-path="url(#7c0ad93993)"><path fill="#964716" d="M 136.558594 160.828125 C 136.558594 160.675781 136.546875 160.527344 136.546875 160.367188 C 136.546875 159.917969 136.558594 159.464844 136.570312 159.015625 C 135.054688 159.085938 133.546875 159.167969 132.03125 159.28125 C 129.363281 159.488281 126.683594 159.753906 124.019531 160.203125 C 126.695312 160.539062 129.386719 160.664062 132.0625 160.757812 C 133.570312 160.816406 135.066406 160.828125 136.558594 160.828125 Z M 136.558594 160.828125 " fill-opacity="1" fill-rule="nonzero"/></g><path fill="#964716" d="M 136.558594 160.828125 C 137.179688 160.828125 137.8125 160.828125 138.433594 160.816406 C 138.433594 160.664062 138.421875 160.527344 138.421875 160.378906 C 138.421875 159.90625 138.433594 159.433594 138.457031 158.960938 C 137.835938 158.980469 137.203125 159.003906 136.582031 159.027344 C 136.570312 159.476562 136.558594 159.929688 136.558594 160.378906 C 136.546875 160.527344 136.558594 160.675781 136.558594 160.828125 Z M 136.558594 160.828125 " fill-opacity="1" fill-rule="nonzero"/><path fill="#964716" d="M 133.824219 174.652344 C 135.445312 173.890625 137.007812 173.097656 138.558594 172.335938 C 138.398438 171.886719 138.238281 171.4375 138.097656 170.976562 C 136.558594 172.046875 135.097656 173.246094 133.824219 174.652344 Z M 133.824219 174.652344 " fill-opacity="1" fill-rule="nonzero"/><path fill="#964716" d="M 149.558594 167.285156 C 151.328125 166.523438 153.125 165.773438 154.917969 164.933594 C 152.929688 165.023438 150.984375 165.382812 149.078125 165.890625 C 147.167969 166.398438 145.304688 167.078125 143.5 167.894531 C 142.191406 168.484375 140.925781 169.164062 139.707031 169.914062 C 139.871094 170.457031 140.042969 171 140.226562 171.515625 C 141.570312 170.859375 142.925781 170.226562 144.285156 169.601562 C 146.03125 168.820312 147.789062 168.046875 149.558594 167.285156 Z M 149.558594 167.285156 " fill-opacity="1" fill-rule="nonzero"/><path fill="#964716" d="M 140.226562 171.515625 C 140.042969 170.988281 139.871094 170.457031 139.707031 169.914062 C 139.25 170.203125 138.789062 170.492188 138.328125 170.800781 C 138.25 170.859375 138.179688 170.917969 138.097656 170.976562 C 138.238281 171.4375 138.398438 171.886719 138.558594 172.335938 C 138.730469 172.253906 138.902344 172.164062 139.078125 172.082031 C 139.457031 171.886719 139.847656 171.703125 140.226562 171.515625 Z M 140.226562 171.515625 " fill-opacity="1" fill-rule="nonzero"/><path fill="#964716" d="M 191.023438 116.800781 C 189.757812 116.71875 188.480469 116.675781 187.25 116.675781 C 186.023438 116.675781 184.757812 116.71875 183.480469 116.800781 L 187.25 133.289062 Z M 191.023438 116.800781 " fill-opacity="1" fill-rule="nonzero"/><path fill="#964716" d="M 191.023438 116.800781 L 191.230469 115.867188 C 189.917969 115.773438 188.585938 115.726562 187.25 115.726562 C 185.90625 115.726562 184.585938 115.773438 183.273438 115.867188 L 183.480469 116.800781 C 184.746094 116.71875 186.023438 116.675781 187.25 116.675781 C 188.480469 116.675781 189.746094 116.71875 191.023438 116.800781 Z M 191.023438 116.800781 " fill-opacity="1" fill-rule="nonzero"/><path fill="#964716" d="M 196.230469 130.085938 C 197.113281 128.03125 198.183594 126.09375 199.34375 124.25 C 200.515625 122.417969 201.804688 120.6875 203.183594 119.105469 C 203.195312 119.09375 203.207031 119.074219 203.230469 119.0625 C 201.515625 118.53125 199.746094 118.070312 197.953125 117.710938 C 197.929688 117.710938 197.90625 117.699219 197.882812 117.699219 C 197.378906 119.566406 196.988281 121.425781 196.710938 123.28125 C 196.378906 125.574219 196.195312 127.847656 196.230469 130.085938 Z M 196.230469 130.085938 " fill-opacity="1" fill-rule="nonzero"/><path fill="#964716" d="M 203.21875 119.074219 C 203.4375 118.808594 203.667969 118.554688 203.90625 118.300781 C 202.035156 117.699219 200.089844 117.191406 198.125 116.800781 C 198.035156 117.101562 197.953125 117.410156 197.871094 117.710938 C 197.894531 117.710938 197.917969 117.722656 197.941406 117.722656 C 199.734375 118.082031 201.503906 118.53125 203.21875 119.074219 Z M 203.21875 119.074219 " fill-opacity="1" fill-rule="nonzero"/><path fill="#964716" d="M 175.160156 124.261719 C 176.320312 126.105469 177.390625 128.042969 178.273438 130.097656 C 178.308594 127.847656 178.125 125.574219 177.792969 123.292969 C 177.527344 121.4375 177.136719 119.566406 176.617188 117.710938 C 176.597656 117.710938 176.574219 117.722656 176.550781 117.722656 C 174.757812 118.082031 172.988281 118.542969 171.273438 119.074219 C 171.285156 119.082031 171.296875 119.105469 171.320312 119.117188 C 172.699219 120.699219 173.988281 122.417969 175.160156 124.261719 Z M 175.160156 124.261719 " fill-opacity="1" fill-rule="nonzero"/><path fill="#964716" d="M 176.628906 117.710938 C 176.550781 117.410156 176.46875 117.101562 176.378906 116.800781 C 174.398438 117.191406 172.46875 117.699219 170.59375 118.300781 C 170.835938 118.554688 171.054688 118.808594 171.285156 119.074219 C 172.996094 118.542969 174.769531 118.082031 176.5625 117.722656 C 176.585938 117.710938 176.605469 117.710938 176.628906 117.710938 Z M 176.628906 117.710938 " fill-opacity="1" fill-rule="nonzero"/><path fill="#ff914d" d="M 34.253906 171.792969 C 42.558594 170.664062 43.226562 185.046875 35.542969 184.699219 C 29.367188 184.421875 27.035156 172.769531 34.253906 171.792969 " fill-opacity="1" fill-rule="evenodd"/><path fill="#ff914d" d="M 47.601562 171.792969 C 56.746094 169.859375 55.679688 185.574219 47.171875 184.699219 C 40.433594 184.007812 41.746094 173.027344 47.601562 171.792969 " fill-opacity="1" fill-rule="evenodd"/><path fill="#ff914d" d="M 31.238281 189.074219 C 27.988281 195.941406 18.074219 191.089844 19.183594 184.285156 C 20.347656 177.117188 33.605469 180.769531 31.238281 189.074219 " fill-opacity="1" fill-rule="evenodd"/><g clip-path="url(#43c13dfd5e)"><path fill="#ff914d" d="M 58.148438 180.535156 C 60.289062 180.136719 62.964844 180.871094 63.960938 182.617188 C 66.714844 187.4375 61.640625 193.332031 56.640625 192.820312 C 53.898438 192.542969 52.3125 190.28125 52.121094 188.238281 C 51.714844 183.867188 54.941406 181.136719 58.148438 180.535156 " fill-opacity="1" fill-rule="evenodd"/></g><g clip-path="url(#6f9e674001)"><path fill="#ff914d" d="M 39.632812 186.992188 C 47.179688 185.730469 54.101562 190.988281 52.550781 199.898438 C 52.230469 201.742188 50.589844 204.351562 48.246094 204.480469 C 46.355469 204.585938 44.144531 202.804688 41.789062 202.816406 C 38.863281 202.828125 36.558594 205.335938 33.820312 204.066406 C 31.523438 202.996094 30.59375 198.671875 31.023438 195.527344 C 31.640625 190.992188 35.089844 187.75 39.632812 186.992188 " fill-opacity="1" fill-rule="evenodd"/></g><path fill="#ff914d" d="M 325.636719 171.792969 C 333.941406 170.664062 334.613281 185.046875 326.929688 184.699219 C 320.75 184.421875 318.421875 172.769531 325.636719 171.792969 " fill-opacity="1" fill-rule="evenodd"/><path fill="#ff914d" d="M 338.984375 171.792969 C 348.132812 169.859375 347.0625 185.574219 338.554688 184.699219 C 331.820312 184.007812 333.132812 173.027344 338.984375 171.792969 " fill-opacity="1" fill-rule="evenodd"/><path fill="#ff914d" d="M 322.625 189.074219 C 319.371094 195.941406 309.460938 191.089844 310.566406 184.285156 C 311.734375 177.117188 324.988281 180.769531 322.625 189.074219 " fill-opacity="1" fill-rule="evenodd"/><g clip-path="url(#e066e97970)"><path fill="#ff914d" d="M 349.535156 180.535156 C 351.675781 180.136719 354.347656 180.871094 355.347656 182.617188 C 358.101562 187.4375 353.023438 193.332031 348.027344 192.820312 C 345.28125 192.542969 343.699219 190.28125 343.507812 188.238281 C 343.097656 183.867188 346.324219 181.136719 349.535156 180.535156 " fill-opacity="1" fill-rule="evenodd"/></g><g clip-path="url(#dab7f705e3)"><path fill="#ff914d" d="M 331.019531 186.992188 C 338.5625 185.730469 345.488281 190.988281 343.9375 199.898438 C 343.617188 201.742188 341.972656 204.351562 339.628906 204.480469 C 337.738281 204.585938 335.527344 202.804688 333.171875 202.816406 C 330.25 202.828125 327.945312 205.335938 325.207031 204.066406 C 322.90625 202.996094 321.976562 198.671875 322.410156 195.527344 C 323.027344 190.992188 326.472656 187.75 331.019531 186.992188 " fill-opacity="1" fill-rule="evenodd"/></g><g fill="#964716" fill-opacity="1"><g transform="translate(58.33822, 144.775298)"><g><path d="M -5.449219 -29.128906 C -7.046875 -29.699219 -9.8125 -30.265625 -11.875 -29.269531 C -13.988281 -28.257812 -14.683594 -27.125 -15.132812 -26.226562 L -22.011719 -12.34375 C -22.082031 -12.203125 -22.066406 -12.148438 -21.921875 -12.078125 C -21.128906 -11.683594 -20.339844 -11.292969 -19.546875 -10.898438 C -15.464844 -8.921875 -11.402344 -6.996094 -7.339844 -4.984375 C -5.328125 -3.984375 0.0664062 -1.132812 0.0664062 -1.132812 C 0.285156 -1.023438 0.570312 -1.0625 0.660156 -1.242188 L 4.742188 -9.476562 C 4.847656 -9.691406 4.703125 -9.941406 4.453125 -10.066406 C 3.644531 -10.421875 2.476562 -11.046875 1.882812 -11.386719 C 0.890625 -12.011719 0.675781 -12.386719 1.191406 -13.429688 C 1.585938 -14.222656 2.757812 -17.582031 2.644531 -19.070312 C 2.605469 -19.804688 2.675781 -20.9375 1.984375 -22.800781 C 1.316406 -24.613281 0.0742188 -25.8125 -1.042969 -26.722656 C -1.726562 -27.242188 -4.605469 -28.847656 -5.449219 -29.128906 Z M -9.671875 -19.980469 C -9.113281 -19.75 -6.542969 -18.429688 -5.804688 -18.019531 C -5.390625 -17.769531 -4.457031 -17.304688 -4.972656 -16.261719 C -5.492188 -15.21875 -6.714844 -15.824219 -7.269531 -16.058594 C -7.808594 -16.324219 -10.164062 -17.539062 -10.792969 -17.894531 C -11.136719 -18.109375 -12.378906 -18.769531 -11.859375 -19.8125 C -11.359375 -20.816406 -10.191406 -20.195312 -9.671875 -19.980469 Z M -9.671875 -19.980469 "/></g></g></g><g fill="#964716" fill-opacity="1"><g transform="translate(71.384102, 119.26523)"><g><path d="M 13.410156 -20.308594 C 9.734375 -22.007812 6.097656 -23.878906 2.433594 -25.722656 C -0.898438 -27.402344 -4.238281 -29.136719 -7.40625 -31.148438 L -16.410156 -19.851562 C -15.925781 -19.363281 -15.449219 -18.929688 -14.992188 -18.410156 C -12.175781 -15.503906 -9.871094 -12.277344 -7.132812 -9.273438 C -4.5 -6.460938 -1.789062 -3.683594 0.605469 -0.695312 L 6.683594 -8.324219 C 5.640625 -9.207031 4.679688 -10.125 3.6875 -11.070312 C 2.476562 -12.191406 1.929688 -12.726562 2.5625 -13.457031 C 3.417969 -14.46875 3.652344 -13.921875 4.5625 -13.453125 C 5.773438 -12.847656 6.539062 -12.390625 7.835938 -11.511719 C 8.113281 -11.34375 8.425781 -11.09375 8.679688 -10.890625 L 15.480469 -19.429688 C 14.792969 -19.722656 14.101562 -20.015625 13.410156 -20.308594 Z M -6.125 -20.070312 C -6.414062 -20.351562 -6.25 -20.683594 -5.996094 -20.683594 C -5.199219 -20.71875 -4.230469 -20 -3.390625 -19.378906 C -2.554688 -18.816406 -1.074219 -17.84375 -1.257812 -17.421875 C -1.332031 -17.328125 -1.191406 -17.117188 -1.300781 -17.046875 C -1.324219 -17.015625 -1.324219 -17.015625 -1.347656 -16.984375 C -2.332031 -15.816406 -3.859375 -17.699219 -6.125 -20.070312 Z M -6.125 -20.070312 "/></g></g></g><g fill="#964716" fill-opacity="1"><g transform="translate(90.047294, 96.36739)"><g><path d="M -1.265625 -31.3125 C -1.390625 -31.210938 -1.410156 -31.042969 -1.308594 -30.917969 C -0.730469 -29.941406 -0.03125 -29.007812 0.570312 -28 C 1.074219 -27.117188 1.421875 -26.878906 2.101562 -25.265625 C 2.390625 -24.519531 1.558594 -23.953125 1.113281 -24.316406 C -0.621094 -25.703125 -2.089844 -27.40625 -3.535156 -29.078125 C -3.660156 -29.234375 -3.832031 -29.25 -3.957031 -29.152344 L -6.113281 -27.417969 C -6.238281 -27.316406 -6.257812 -27.148438 -6.15625 -27.023438 C -4.957031 -25.207031 -3.757812 -23.390625 -2.769531 -21.457031 C -2.464844 -20.824219 -3.167969 -20.15625 -3.707031 -20.703125 C -5.257812 -22.183594 -6.898438 -23.648438 -8.324219 -25.230469 C -8.449219 -25.386719 -8.617188 -25.40625 -8.742188 -25.304688 L -14.9375 -20.328125 C -15.0625 -20.230469 -15.058594 -20.027344 -14.957031 -19.902344 L -14.90625 -19.839844 C -14.882812 -19.808594 -14.855469 -19.777344 -14.855469 -19.777344 C -12.851562 -17.988281 -11.050781 -15.9375 -9.179688 -13.992188 C -7.589844 -12.332031 -5.964844 -10.757812 -4.40625 -9.074219 C -2.96875 -7.605469 -1.527344 -6.132812 -0.0585938 -4.6875 C 0.792969 -3.882812 1.648438 -3.074219 2.539062 -2.347656 C 2.671875 -2.25 2.839844 -2.230469 2.933594 -2.304688 L 9.539062 -7.609375 C 9.632812 -7.683594 9.648438 -7.855469 9.554688 -8.035156 C 9.019531 -8.894531 9.148438 -8.738281 8.617188 -9.652344 C 7.871094 -10.902344 6.859375 -12.097656 6.410156 -13.488281 C 6.144531 -14.203125 7.140625 -14.4375 7.570312 -13.90625 C 9.109375 -12.050781 9.960938 -11.246094 11.707031 -9.714844 C 11.839844 -9.613281 12.007812 -9.59375 12.101562 -9.671875 L 18.519531 -14.824219 C 18.644531 -14.921875 18.636719 -15.125 18.535156 -15.25 C 18.128906 -15.949219 17.679688 -16.570312 17.273438 -17.269531 C 16.636719 -18.253906 15.457031 -19.722656 14.878906 -20.699219 C 14.296875 -21.675781 13.414062 -22.972656 10.871094 -26.90625 C 8.648438 -30.316406 7.070312 -32.34375 5.121094 -35.925781 C 5.023438 -36.105469 4.804688 -36.1875 4.648438 -36.0625 Z M -1.265625 -31.3125 "/></g></g></g><g fill="#964716" fill-opacity="1"><g transform="translate(114.687363, 77.295935)"><g><path d="M 9.652344 -32.894531 L -3.585938 -26.347656 C -4.699219 -25.792969 -5.601562 -24.8125 -6.339844 -23.863281 C -7.261719 -22.648438 -7.609375 -21.175781 -7.542969 -19.6875 C -7.464844 -17.082031 -6.523438 -14.457031 -4.683594 -12.726562 C -3.71875 -11.863281 -2.445312 -11.191406 -1.15625 -11.027344 C 0.550781 -10.839844 2.09375 -11.425781 3.605469 -12.261719 C 4.558594 -12.777344 7.261719 -14.652344 7.722656 -13.535156 C 7.953125 -12.980469 7.773438 -12.53125 7.375 -12.15625 C 6.203125 -11.171875 2.210938 -9.109375 0.699219 -8.539062 C 0.414062 -8.398438 -1.132812 -7.632812 -1.925781 -7.332031 C -2.105469 -7.242188 -2.214844 -7.007812 -2.125 -6.828125 C -1.414062 -5.390625 -0.59375 -4.003906 0.0117188 -2.511719 C 0.222656 -1.902344 0.472656 -1.308594 0.792969 -0.75 C 0.882812 -0.570312 1.078125 -0.535156 1.222656 -0.605469 C 1.222656 -0.605469 12.539062 -6.246094 13.078125 -6.511719 C 13.777344 -6.90625 15.648438 -7.742188 16.964844 -8.972656 C 17.992188 -9.972656 18.609375 -11.355469 18.699219 -12.160156 C 18.941406 -14.027344 18.445312 -15.574219 18.109375 -16.253906 C 15.847656 -20.824219 13.820312 -21.210938 12.386719 -21.574219 C 10.648438 -22.011719 8.957031 -21.445312 7.324219 -20.769531 C 5.703125 -20.058594 5.21875 -19.597656 3.816406 -19.171875 C 3.421875 -19.066406 2.738281 -18.816406 2.308594 -19.679688 C 1.863281 -20.578125 3.324219 -21.433594 5.105469 -22.359375 C 6.308594 -23 10.550781 -24.742188 13 -25.863281 C 13.195312 -25.914062 13.25 -26.167969 13.160156 -26.347656 C 12.839844 -26.902344 12.019531 -28.199219 11.738281 -28.777344 C 10.617188 -31.132812 10.617188 -31.402344 9.796875 -32.875 C 9.742188 -32.894531 9.707031 -32.875 9.652344 -32.894531 Z M 9.652344 -32.894531 "/></g></g></g><g fill="#964716" fill-opacity="1"><g transform="translate(140.410742, 65.036385)"><g><path d="M 18.199219 -22.675781 C 17.675781 -24.695312 16.046875 -26.679688 14.296875 -27.679688 C 12.507812 -28.667969 10.699219 -28.78125 8.675781 -28.261719 C 6.65625 -27.742188 1.5625 -26.429688 1.484375 -26.410156 C -0.582031 -25.585938 -1.714844 -24.839844 -2.90625 -22.707031 C -3.617188 -21.449219 -3.964844 -19.578125 -3.375 -17.285156 C -2.785156 -14.992188 -1.253906 -9.042969 -0.871094 -7.566406 C -0.492188 -6.089844 1.394531 -3.921875 2.613281 -3.203125 C 4.03125 -2.363281 6.296875 -1.789062 8.433594 -2.171875 C 8.628906 -2.222656 13.019531 -3.355469 13.601562 -3.503906 C 15.894531 -4.09375 16.890625 -5.054688 18.003906 -6.210938 C 18.949219 -7.203125 19.710938 -8.433594 20.050781 -9.847656 C 20.507812 -11.457031 20.710938 -12.917969 20.191406 -14.941406 C 19.667969 -16.960938 18.707031 -20.691406 18.199219 -22.675781 Z M 7.640625 -12.496094 C 7.121094 -14.515625 6.46875 -17.042969 6.230469 -17.808594 C 6.070312 -18.429688 5.835938 -19.820312 7.15625 -20.160156 C 8.207031 -20.433594 8.59375 -19.578125 8.953125 -18.34375 C 9.390625 -16.964844 9.902344 -14.488281 10.40625 -12.542969 C 10.566406 -11.921875 10.71875 -10.675781 9.671875 -10.40625 C 8.855469 -10.195312 8.152344 -10.511719 7.640625 -12.496094 Z M 7.640625 -12.496094 "/></g></g></g><g fill="#964716" fill-opacity="1"><g transform="translate(167.819945, 58.259014)"><g><path d="M 25.0625 -13.011719 C 24.945312 -17.34375 24.988281 -21.644531 24.828125 -25.976562 C 24.824219 -26.054688 24.78125 -26.132812 24.703125 -26.132812 L 13.914062 -25.734375 C 13.871094 -25.730469 13.792969 -25.6875 13.796875 -25.609375 C 13.542969 -23.753906 13.4375 -20.132812 13.421875 -19.449219 C 13.40625 -18.765625 13.285156 -18.804688 13.046875 -18.714844 C 12.808594 -18.625 12.441406 -18.730469 12.390625 -19.050781 C 11.878906 -21 11.792969 -23.328125 11.46875 -25.523438 C 11.425781 -25.601562 11.382812 -25.679688 11.304688 -25.679688 L 0.355469 -25.273438 C 0.273438 -25.273438 0.199219 -25.148438 0.242188 -25.070312 C 0.242188 -25.03125 0.246094 -24.988281 0.246094 -24.949219 C 0.292969 -23.667969 0.339844 -22.382812 0.429688 -21.0625 C 0.472656 -19.855469 1.0625 -7.148438 1.027344 -0.480469 L 1.035156 -0.199219 C 1.039062 -0.117188 1.082031 -0.0390625 1.164062 -0.0429688 L 8.984375 -0.332031 C 9.0625 -0.332031 9.140625 -0.417969 9.136719 -0.496094 C 9.023438 -2.542969 9.199219 -5.398438 9.085938 -7.402344 C 9.058594 -8.125 9.703125 -8.109375 9.929688 -7.394531 C 10.492188 -5.164062 10.582031 -2.71875 11.105469 -0.53125 C 11.148438 -0.449219 11.191406 -0.410156 11.269531 -0.414062 L 15.039062 -0.554688 C 15.082031 -0.554688 15.160156 -0.597656 15.15625 -0.679688 C 15.550781 -3.0625 15.714844 -5.117188 16.097656 -7.820312 C 16.15625 -8.386719 16.808594 -8.128906 16.832031 -7.566406 C 16.921875 -5.121094 17.15625 -3.082031 17.199219 -0.792969 C 17.203125 -0.714844 17.246094 -0.636719 17.328125 -0.636719 L 25.667969 -0.945312 C 25.75 -0.949219 25.828125 -1.03125 25.824219 -1.109375 C 25.824219 -1.109375 25.144531 -10.804688 25.0625 -13.011719 Z M 25.0625 -13.011719 "/></g></g></g><g fill="#964716" fill-opacity="1"><g transform="translate(198.583436, 57.661303)"><g><path d="M 24.164062 -2.347656 C 24.199219 -2.542969 24.070312 -2.730469 23.914062 -2.757812 C 21.847656 -3.054688 15.226562 -3.886719 14.242188 -4.308594 C 13.449219 -4.65625 12.628906 -5.539062 13.324219 -6.433594 C 13.960938 -7.257812 15.472656 -6.820312 16.308594 -6.707031 C 17.230469 -6.621094 22.480469 -5.425781 24.335938 -5.089844 C 24.496094 -5.058594 24.679688 -5.191406 24.710938 -5.347656 C 24.804688 -5.859375 24.867188 -6.214844 24.96875 -6.769531 L 25.5625 -10.046875 C 25.597656 -10.246094 25.46875 -10.429688 25.3125 -10.460938 C 24.757812 -10.558594 15.496094 -12.117188 14.9375 -12.421875 C 14.453125 -12.675781 14.058594 -13.195312 14.207031 -13.78125 C 14.457031 -14.714844 15.535156 -14.804688 16.339844 -14.738281 C 18.410156 -14.6875 25.796875 -13.144531 25.796875 -13.144531 C 25.996094 -13.109375 26.140625 -13.246094 26.179688 -13.441406 C 26.179688 -13.441406 26.273438 -15.097656 26.457031 -15.878906 C 26.601562 -16.671875 27.109375 -19.027344 27.21875 -19.414062 C 27.339844 -19.839844 27.472656 -20.347656 27.480469 -20.386719 C 27.46875 -20.550781 27.324219 -20.660156 27.207031 -20.679688 L 6.15625 -24.5 C 5.839844 -24.554688 5.554688 -24.324219 5.535156 -24 C 5.378906 -19.988281 4.191406 -16.125 3.441406 -12.222656 C 2.679688 -8.242188 1.960938 -4.292969 1.082031 -0.335938 C 0.992188 -0.0664062 1.183594 0.214844 1.5 0.273438 L 22.824219 4.140625 C 23.023438 4.175781 23.164062 4.078125 23.199219 3.882812 C 23.199219 3.882812 23.636719 0.574219 23.769531 -0.175781 C 23.886719 -0.804688 24.042969 -1.675781 24.164062 -2.347656 Z M 24.164062 -2.347656 "/></g></g></g><g fill="#964716" fill-opacity="1"><g transform="translate(227.03267, 63.818558)"><g/></g></g><g fill="#964716" fill-opacity="1"><g transform="translate(238.237727, 67.307846)"><g><path d="M 25.722656 1.394531 C 25.757812 1.230469 25.671875 1.050781 25.53125 0.976562 C 25.386719 0.902344 19.148438 -2.058594 17.796875 -2.9375 C 16.90625 -3.492188 16.585938 -3.65625 16.003906 -4.542969 C 15.742188 -4.996094 15.734375 -5.679688 15.957031 -6.195312 C 16.253906 -6.765625 17.300781 -7.308594 18.691406 -6.589844 C 19.351562 -6.203125 26.304688 -2.871094 27.246094 -2.335938 C 27.425781 -2.246094 27.640625 -2.3125 27.734375 -2.492188 C 27.734375 -2.492188 30.34375 -7.875 30.890625 -8.675781 C 31.003906 -8.886719 31.128906 -9.046875 31.222656 -9.226562 L 32.183594 -11.078125 C 32.277344 -11.257812 32.050781 -11.78125 31.871094 -11.875 L 22.429688 -16.765625 C 19.789062 -18.132812 16.558594 -19.308594 14.378906 -18.675781 C 13.007812 -18.300781 11.65625 -17.78125 10.617188 -16.828125 C 9.597656 -15.820312 8.574219 -14.453125 7.761719 -12.882812 C 6.929688 -11.28125 7.742188 -12.847656 7.722656 -12.8125 L 5.507812 -8.535156 C 4.714844 -7.003906 4.132812 -5.363281 4.367188 -2.753906 C 4.457031 -1.535156 5.066406 -0.179688 5.75 0.945312 C 6.398438 2.046875 7.660156 3.96875 12.1875 6.3125 L 20.527344 10.632812 C 20.703125 10.726562 20.921875 10.660156 21.011719 10.480469 L 22.140625 8.304688 C 22.867188 6.46875 25.113281 2.480469 25.722656 1.394531 Z M 25.722656 1.394531 "/></g></g></g><g fill="#964716" fill-opacity="1"><g transform="translate(263.44648, 80.76237)"><g><path d="M 20.070312 13.765625 C 21.832031 10.121094 23.769531 6.515625 25.675781 2.882812 C 27.414062 -0.417969 29.207031 -3.726562 31.273438 -6.859375 L 20.136719 -16.058594 C 19.636719 -15.585938 19.199219 -15.117188 18.671875 -14.667969 C 15.714844 -11.902344 12.449219 -9.652344 9.398438 -6.96875 C 6.539062 -4.386719 3.710938 -1.722656 0.6875 0.617188 L 8.207031 6.828125 C 9.105469 5.800781 10.042969 4.859375 11.003906 3.882812 C 12.144531 2.691406 12.691406 2.152344 13.410156 2.796875 C 14.40625 3.671875 13.855469 3.894531 13.371094 4.796875 C 12.746094 5.996094 12.277344 6.753906 11.371094 8.039062 C 11.199219 8.3125 10.941406 8.621094 10.738281 8.867188 L 19.15625 15.820312 C 19.460938 15.136719 19.765625 14.449219 20.070312 13.765625 Z M 20.175781 -5.773438 C 20.460938 -6.054688 20.792969 -5.886719 20.789062 -5.632812 C 20.804688 -4.835938 20.070312 -3.882812 19.4375 -3.050781 C 18.859375 -2.226562 17.859375 -0.761719 17.441406 -0.949219 C 17.347656 -1.027344 17.132812 -0.894531 17.066406 -1 C 17.035156 -1.027344 17.035156 -1.027344 17.003906 -1.050781 C 15.855469 -2.054688 17.765625 -3.546875 20.175781 -5.773438 Z M 20.175781 -5.773438 "/></g></g></g><g fill="#964716" fill-opacity="1"><g transform="translate(285.977927, 99.973075)"><g><path d="M 19.246094 12.007812 C 19.507812 11.496094 19.753906 11.097656 20.285156 11.1875 C 20.285156 11.1875 20.316406 11.164062 20.34375 11.195312 C 20.429688 11.175781 22.300781 11.082031 23.304688 10.800781 C 24.308594 10.519531 26.183594 9.394531 27.351562 8.476562 C 29.019531 7.15625 30.222656 6.15625 31.003906 4.617188 C 31.296875 4.082031 31.835938 2.886719 31.867188 1.632812 C 31.9375 0.554688 31.726562 -0.554688 31.15625 -1.277344 L 20.609375 -14.636719 C 20.535156 -14.730469 20.441406 -14.65625 20.347656 -14.582031 C 18.378906 -12.925781 16.1875 -11.296875 14.148438 -9.738281 L 10.273438 -6.679688 L 10.242188 -6.652344 C 9.792969 -6.25 4.160156 -1.855469 3.625 -1.429688 L 3.59375 -1.40625 L 0.980469 0.65625 C 0.824219 0.78125 0.746094 0.945312 0.84375 1.070312 L 6.664062 8.441406 C 6.738281 8.535156 6.941406 8.53125 7.097656 8.40625 C 8.402344 7.273438 9.875 6.164062 11.273438 5.210938 C 11.589844 4.964844 12.089844 5.335938 12.023438 5.644531 C 11.867188 6.480469 9.472656 10.316406 8.9375 10.996094 C 8.867188 11.101562 8.855469 11.214844 8.929688 11.308594 L 14.472656 18.332031 C 14.574219 18.460938 14.804688 18.429688 14.96875 18.25 C 15.4375 17.675781 18.269531 14.007812 19.246094 12.007812 Z M 19.34375 0.988281 C 18.316406 1.699219 17.566406 1.523438 17.25 1.058594 C 16.90625 0.558594 17.378906 0.1875 17.640625 -0.0664062 C 18.371094 -0.695312 19.6875 -1.683594 20.378906 -2.230469 C 20.757812 -2.53125 21.136719 -2.828125 21.386719 -3.027344 C 21.601562 -3.144531 21.964844 -3.074219 22.164062 -2.820312 C 22.488281 -2.414062 22.589844 -1.828125 21.585938 -0.832031 C 20.941406 -0.222656 20.273438 0.355469 19.34375 0.988281 Z M 19.34375 0.988281 "/></g></g></g><g fill="#964716" fill-opacity="1"><g transform="translate(303.359742, 122.64186)"><g><path d="M 16.300781 17.992188 C 16.480469 17.90625 16.554688 17.6875 16.480469 17.546875 C 15.484375 15.710938 12.203125 9.902344 11.957031 8.859375 C 11.761719 8.015625 11.980469 6.832031 13.113281 6.851562 C 14.152344 6.875 14.703125 8.347656 15.113281 9.085938 C 15.59375 9.878906 17.765625 14.804688 18.605469 16.496094 C 18.675781 16.636719 18.890625 16.710938 19.035156 16.640625 C 19.5 16.40625 19.824219 16.246094 20.328125 16 L 23.3125 14.519531 C 23.492188 14.429688 23.566406 14.214844 23.496094 14.070312 C 23.246094 13.570312 18.96875 5.207031 18.882812 4.578125 C 18.796875 4.039062 18.976562 3.410156 19.535156 3.179688 C 20.433594 2.824219 21.148438 3.636719 21.574219 4.320312 C 22.773438 6.011719 25.941406 12.859375 25.941406 12.859375 C 26.03125 13.039062 26.226562 13.078125 26.40625 12.988281 C 26.40625 12.988281 27.792969 12.078125 28.53125 11.757812 C 29.25 11.402344 31.441406 10.40625 31.820312 10.261719 C 32.234375 10.101562 32.71875 9.90625 32.753906 9.890625 C 32.878906 9.78125 32.882812 9.601562 32.828125 9.496094 L 23.335938 -9.675781 C 23.191406 -9.960938 22.832031 -10.054688 22.5625 -9.875 C 19.253906 -7.609375 15.441406 -6.257812 11.863281 -4.53125 C 8.214844 -2.769531 4.617188 -0.988281 0.914062 0.667969 C 0.644531 0.757812 0.535156 1.078125 0.675781 1.367188 L 10.292969 20.789062 C 10.382812 20.96875 10.546875 21.023438 10.726562 20.933594 C 10.726562 20.933594 13.640625 19.3125 14.324219 18.972656 C 14.898438 18.6875 15.6875 18.296875 16.300781 17.992188 Z M 16.300781 17.992188 "/></g></g></g><g fill="#964716" fill-opacity="1"><g transform="translate(37.485659, 230.209664)"><g><path d="M 24.453125 16.746094 C 25.984375 16.015625 28.339844 14.460938 29.09375 12.300781 C 29.875 10.089844 29.5625 8.796875 29.242188 7.84375 L 24.292969 -6.835938 C 24.242188 -6.988281 24.191406 -7.011719 24.039062 -6.960938 C 23.203125 -6.679688 22.367188 -6.398438 21.53125 -6.117188 C 17.246094 -4.628906 13.011719 -3.117188 8.714844 -1.667969 C 6.582031 -0.949219 0.75 0.847656 0.75 0.847656 C 0.523438 0.925781 0.347656 1.152344 0.410156 1.34375 L 3.347656 10.054688 C 3.425781 10.28125 3.703125 10.355469 3.96875 10.265625 C 4.792969 9.945312 6.0625 9.5625 6.722656 9.382812 C 7.863281 9.125 8.28125 9.238281 8.652344 10.339844 C 8.933594 11.175781 10.480469 14.382812 11.613281 15.355469 C 12.164062 15.847656 12.914062 16.695312 14.71875 17.527344 C 16.472656 18.332031 18.199219 18.300781 19.632812 18.15625 C 20.484375 18.039062 23.652344 17.140625 24.453125 16.746094 Z M 20.964844 7.289062 C 20.410156 7.519531 17.65625 8.40625 16.847656 8.636719 C 16.378906 8.75 15.386719 9.085938 15.015625 7.980469 C 14.644531 6.878906 15.9375 6.441406 16.496094 6.214844 C 17.066406 6.019531 19.589844 5.210938 20.285156 5.019531 C 20.679688 4.929688 22.023438 4.519531 22.394531 5.621094 C 22.753906 6.6875 21.484375 7.070312 20.964844 7.289062 Z M 20.964844 7.289062 "/></g></g></g><g fill="#964716" fill-opacity="1"><g transform="translate(47.211399, 257.741793)"><g><path d="M 17.234375 17.097656 C 17.410156 17 17.472656 16.78125 17.394531 16.640625 C 16.296875 14.863281 12.714844 9.234375 12.410156 8.207031 C 12.171875 7.375 12.328125 6.183594 13.457031 6.144531 C 14.5 6.109375 15.128906 7.554688 15.578125 8.269531 C 16.101562 9.03125 18.53125 13.835938 19.457031 15.480469 C 19.535156 15.621094 19.753906 15.679688 19.894531 15.601562 C 20.347656 15.34375 20.664062 15.167969 21.152344 14.890625 L 24.054688 13.257812 C 24.230469 13.160156 24.289062 12.941406 24.210938 12.800781 C 23.9375 12.3125 19.21875 4.1875 19.101562 3.566406 C 18.984375 3.03125 19.132812 2.394531 19.675781 2.132812 C 20.554688 1.730469 21.3125 2.503906 21.777344 3.164062 C 23.058594 4.789062 26.589844 11.460938 26.589844 11.460938 C 26.6875 11.636719 26.886719 11.660156 27.0625 11.5625 C 27.0625 11.5625 28.398438 10.582031 29.117188 10.222656 C 29.816406 9.828125 31.953125 8.714844 32.320312 8.550781 C 32.726562 8.371094 33.199219 8.148438 33.234375 8.128906 C 33.355469 8.015625 33.347656 7.835938 33.289062 7.730469 L 22.785156 -10.90625 C 22.628906 -11.183594 22.265625 -11.257812 22.003906 -11.0625 C 18.820312 -8.625 15.085938 -7.074219 11.605469 -5.15625 C 8.054688 -3.203125 4.558594 -1.230469 0.945312 0.617188 C 0.683594 0.722656 0.589844 1.050781 0.75 1.328125 L 11.386719 20.210938 C 11.488281 20.386719 11.652344 20.429688 11.824219 20.332031 C 11.824219 20.332031 14.648438 18.558594 15.3125 18.183594 C 15.871094 17.867188 16.640625 17.433594 17.234375 17.097656 Z M 17.234375 17.097656 "/></g></g></g><g fill="#964716" fill-opacity="1"><g transform="translate(61.840136, 282.869173)"><g><path d="M 34.296875 1.640625 C 34.324219 1.617188 34.273438 1.554688 34.273438 1.554688 L 20.097656 -15.261719 C 19.996094 -15.386719 19.890625 -15.507812 19.707031 -15.351562 C 19.554688 -15.222656 15.722656 -12.046875 14.636719 -10.972656 C 14.132812 -10.445312 12.625 -9.121094 12.625 -9.121094 L 12.59375 -9.09375 C 12.441406 -8.964844 12.390625 -8.714844 12.496094 -8.589844 C 12.496094 -8.589844 14 -6.867188 14.433594 -6.289062 C 14.792969 -5.804688 15.03125 -5.269531 14.972656 -4.589844 C 14.90625 -3.800781 14.132812 -3.410156 13.539062 -2.804688 C 12.820312 -2.039062 5.707031 3.535156 4.445312 4.652344 C 4.261719 4.804688 4.242188 5.03125 4.34375 5.15625 L 11.5625 13.71875 C 11.691406 13.871094 11.917969 13.890625 12.101562 13.734375 C 12.5625 13.347656 21.503906 5.707031 22.675781 4.980469 C 23.09375 4.730469 23.429688 4.816406 23.597656 4.832031 C 24.179688 5.023438 25.492188 7.015625 26.441406 7.894531 C 26.578125 7.988281 26.804688 8.007812 26.960938 7.824219 C 27.757812 7.152344 28.609375 6.539062 29.402344 5.921875 C 31.109375 4.589844 32.636719 3.039062 34.296875 1.640625 Z M 34.296875 1.640625 "/></g></g></g><g fill="#964716" fill-opacity="1"><g transform="translate(80.669435, 303.981697)"><g/></g></g><g fill="#964716" fill-opacity="1"><g transform="translate(88.532267, 311.648089)"><g><path d="M 33.535156 -7.113281 L 21.488281 -15.660156 C 20.476562 -16.378906 19.179688 -16.707031 17.996094 -16.90625 C 16.488281 -17.140625 15.027344 -16.746094 13.75 -15.984375 C 11.496094 -14.679688 9.628906 -12.605469 8.980469 -10.164062 C 8.675781 -8.902344 8.691406 -7.464844 9.15625 -6.25 C 9.800781 -4.660156 11.050781 -3.578125 12.503906 -2.644531 C 13.410156 -2.050781 16.339844 -0.5625 15.578125 0.375 C 15.199219 0.839844 14.71875 0.894531 14.199219 0.722656 C 12.78125 0.160156 9.066406 -2.375 7.851562 -3.4375 C 7.589844 -3.621094 6.179688 -4.621094 5.539062 -5.171875 C 5.375 -5.289062 5.121094 -5.273438 5.003906 -5.109375 C 4.074219 -3.800781 3.242188 -2.421875 2.21875 -1.183594 C 1.78125 -0.707031 1.375 -0.207031 1.035156 0.34375 C 0.921875 0.503906 0.980469 0.695312 1.113281 0.789062 C 1.113281 0.789062 11.449219 8.070312 11.9375 8.417969 C 12.617188 8.851562 14.238281 10.101562 15.949219 10.671875 C 17.316406 11.101562 18.824219 10.992188 19.578125 10.691406 C 21.335938 10.015625 22.460938 8.847656 22.902344 8.226562 C 25.851562 4.066406 25.230469 2.101562 24.871094 0.664062 C 24.429688 -1.074219 23.128906 -2.292969 21.757812 -3.414062 C 20.363281 -4.5 19.722656 -4.707031 18.683594 -5.738281 C 18.40625 -6.039062 17.863281 -6.519531 18.417969 -7.304688 C 19 -8.125 20.445312 -7.246094 22.105469 -6.121094 C 23.242188 -5.363281 26.785156 -2.453125 28.933594 -0.832031 C 29.074219 -0.683594 29.320312 -0.753906 29.4375 -0.917969 C 29.777344 -1.464844 30.527344 -2.800781 30.898438 -3.324219 C 32.441406 -5.429688 32.679688 -5.558594 33.589844 -6.976562 C 33.578125 -7.035156 33.546875 -7.058594 33.535156 -7.113281 Z M 33.535156 -7.113281 "/></g></g></g><g fill="#964716" fill-opacity="1"><g transform="translate(112.416706, 328.092369)"><g><path d="M 31.828125 -12.933594 C 31.878906 -13.042969 31.800781 -13.164062 31.726562 -13.199219 L 22.859375 -17.257812 C 22.75 -17.308594 22.628906 -17.230469 22.558594 -17.085938 C 22.296875 -16.410156 21.101562 -13.515625 20.703125 -12.640625 C 20.117188 -11.363281 19.746094 -10.164062 18.695312 -10.378906 C 17.648438 -10.59375 17.28125 -11.335938 18.183594 -13.308594 C 18.515625 -14.035156 19.800781 -16.9375 20.40625 -18.070312 C 20.472656 -18.21875 20.414062 -18.375 20.304688 -18.425781 L 11.617188 -22.402344 C 11.507812 -22.453125 11.351562 -22.390625 11.320312 -22.230469 C 9.757812 -18.621094 3.238281 -3.507812 1.140625 0.210938 C 1.070312 0.359375 1.09375 0.5 1.242188 0.566406 L 9.890625 4.527344 C 10.035156 4.59375 10.160156 4.515625 10.226562 4.371094 C 10.742188 3.238281 11.152344 2.058594 11.707031 0.941406 C 12.144531 0.0820312 13.257812 -2.539062 14.316406 -2.054688 C 15.371094 -1.570312 14.328125 0.90625 13.863281 2.019531 C 13.46875 3.074219 12.503906 5.28125 12.433594 5.425781 C 12.386719 5.535156 12.410156 5.679688 12.519531 5.726562 L 21.128906 9.667969 C 21.238281 9.71875 21.398438 9.660156 21.449219 9.550781 C 21.550781 9.332031 25.179688 1.589844 26.800781 -1.949219 C 28.421875 -5.488281 31.808594 -12.898438 31.828125 -12.933594 Z M 31.828125 -12.933594 "/></g></g></g><g fill="#964716" fill-opacity="1"><g transform="translate(139.171839, 339.863307)"><g><path d="M 26.773438 -11.332031 C 27.273438 -13.355469 26.78125 -15.875 25.714844 -17.585938 C 24.609375 -19.304688 23.070312 -20.265625 21.042969 -20.765625 C 19.015625 -21.265625 13.914062 -22.527344 13.835938 -22.546875 C 11.625 -22.800781 10.269531 -22.679688 8.210938 -21.371094 C 6.988281 -20.597656 5.792969 -19.117188 5.226562 -16.816406 C 4.660156 -14.515625 3.1875 -8.554688 2.820312 -7.074219 C 2.457031 -5.59375 3.085938 -2.792969 3.820312 -1.578125 C 4.671875 -0.167969 6.390625 1.414062 8.457031 2.085938 C 8.648438 2.136719 13.054688 3.222656 13.636719 3.367188 C 15.9375 3.933594 17.269531 3.5625 18.796875 3.070312 C 20.097656 2.648438 21.351562 1.921875 22.324219 0.839844 C 23.488281 -0.359375 24.359375 -1.550781 24.859375 -3.578125 C 25.359375 -5.601562 26.285156 -9.34375 26.773438 -11.332031 Z M 12.652344 -7.375 C 13.152344 -9.402344 13.777344 -11.933594 13.929688 -12.722656 C 14.085938 -13.347656 14.539062 -14.683594 15.863281 -14.355469 C 16.914062 -14.097656 16.851562 -13.160156 16.582031 -11.90625 C 16.3125 -10.484375 15.589844 -8.058594 15.109375 -6.109375 C 14.953125 -5.484375 14.5 -4.316406 13.449219 -4.574219 C 12.628906 -4.777344 12.160156 -5.390625 12.652344 -7.375 Z M 12.652344 -7.375 "/></g></g></g><g fill="#964716" fill-opacity="1"><g transform="translate(167.213582, 346.384042)"><g><path d="M 24.625 -16.488281 C 24.515625 -18.183594 23.945312 -20.949219 22.21875 -22.449219 C 20.457031 -23.996094 19.140625 -24.1875 18.140625 -24.242188 L 2.671875 -25.09375 C 2.511719 -25.105469 2.46875 -25.066406 2.457031 -24.90625 C 2.410156 -24.023438 2.363281 -23.144531 2.3125 -22.261719 C 2.101562 -17.730469 1.9375 -13.238281 1.6875 -8.710938 C 1.5625 -6.464844 1.066406 -0.382812 1.066406 -0.382812 C 1.054688 -0.144531 1.199219 0.105469 1.398438 0.117188 L 10.578125 0.625 C 10.816406 0.636719 10.992188 0.40625 11.007812 0.125 C 11.015625 -0.757812 11.128906 -2.078125 11.207031 -2.757812 C 11.390625 -3.914062 11.652344 -4.261719 12.8125 -4.199219 C 13.695312 -4.148438 17.246094 -4.394531 18.570312 -5.085938 C 19.230469 -5.410156 20.296875 -5.792969 21.738281 -7.160156 C 23.136719 -8.492188 23.75 -10.105469 24.148438 -11.492188 C 24.355469 -12.324219 24.695312 -15.601562 24.625 -16.488281 Z M 14.550781 -16.761719 C 14.558594 -16.160156 14.359375 -13.277344 14.273438 -12.4375 C 14.207031 -11.957031 14.148438 -10.917969 12.984375 -10.980469 C 11.824219 -11.042969 11.898438 -12.40625 11.890625 -13.011719 C 11.925781 -13.613281 12.109375 -16.253906 12.191406 -16.972656 C 12.253906 -17.371094 12.371094 -18.773438 13.53125 -18.707031 C 14.65625 -18.648438 14.542969 -17.328125 14.550781 -16.761719 Z M 14.550781 -16.761719 "/></g></g></g><g fill="#964716" fill-opacity="1"><g transform="translate(195.702647, 347.159135)"><g/></g></g><g fill="#964716" fill-opacity="1"><g transform="translate(206.668034, 346.676287)"><g><path d="M 21.042969 -14.230469 C 21.035156 -14.269531 20.988281 -14.300781 20.910156 -14.285156 C 20.367188 -14.132812 17.09375 -13.308594 15.566406 -12.960938 C 14.039062 -12.613281 13.160156 -12.515625 11.640625 -12.335938 C 11.207031 -12.246094 10.710938 -12.476562 10.578125 -12.9375 C 10.480469 -13.410156 10.652344 -13.773438 11.277344 -13.941406 C 12.179688 -14.121094 17.40625 -15.214844 17.789062 -15.335938 L 17.832031 -15.34375 C 18.445312 -15.546875 19.128906 -15.601562 18.851562 -16.777344 C 18.636719 -17.839844 17.828125 -18.003906 17.316406 -17.898438 C 16.339844 -17.660156 11.5625 -16.78125 10.871094 -16.765625 C 10.460938 -16.765625 10.003906 -16.589844 9.738281 -16.90625 C 9.476562 -17.179688 9.453125 -17.910156 10.121094 -18.25 C 10.726562 -18.496094 12.773438 -19.113281 14.226562 -19.40625 C 16.03125 -19.808594 19.074219 -20.339844 19.554688 -20.398438 C 19.59375 -20.40625 19.625 -20.453125 19.617188 -20.492188 C 19.601562 -20.570312 18.816406 -23.851562 18.59375 -25.363281 C 18.585938 -25.402344 18.539062 -25.433594 18.460938 -25.417969 L 13.582031 -24.433594 C 13.503906 -24.417969 13.457031 -24.449219 13.441406 -24.527344 C 13.441406 -24.527344 13.15625 -25.535156 12.988281 -26.363281 C 12.816406 -27.226562 12.710938 -28.148438 12.710938 -28.148438 C 12.695312 -28.226562 12.640625 -28.296875 12.601562 -28.289062 L 1.308594 -26.015625 C 1.230469 -26 1.207031 -25.914062 1.222656 -25.835938 C 1.222656 -25.835938 1.453125 -25.308594 1.683594 -24.167969 C 1.945312 -22.867188 1.953125 -22.214844 1.953125 -22.214844 C 1.96875 -22.136719 1.9375 -22.089844 1.898438 -22.082031 C 1.898438 -22.082031 -0.046875 -21.363281 -0.644531 -20.875 C -1.144531 -20.527344 -1.710938 -19.878906 -1.941406 -19.382812 C -2.441406 -18.21875 -2.558594 -17.582031 -2.382812 -16.714844 L -2.171875 -15.652344 C -1.917969 -14.394531 -0.347656 -13.523438 -0.0898438 -13.453125 C 0.257812 -13.359375 0.382812 -12.933594 0.1875 -12.6875 C -0.386719 -11.875 -1.179688 -10.734375 -0.902344 -9.359375 L -0.59375 -7.824219 C -0.433594 -7.035156 0.0390625 -6.3125 1.289062 -5.582031 C 2.179688 -5.023438 4.1875 -5.222656 5.25 -5.4375 C 5.367188 -5.460938 5.503906 -5.40625 5.527344 -5.289062 C 5.503906 -5.203125 5.480469 -5.320312 5.796875 -3.746094 C 6.113281 -2.171875 6.152344 -1.363281 6.152344 -1.363281 C 6.167969 -1.285156 6.214844 -1.253906 6.296875 -1.269531 L 17.585938 -3.542969 C 17.625 -3.550781 17.65625 -3.597656 17.640625 -3.675781 C 17.640625 -3.675781 17.507812 -4.140625 17.160156 -5.667969 C 16.851562 -7.203125 16.839844 -7.652344 16.839844 -7.652344 C 16.824219 -7.730469 16.855469 -7.777344 16.894531 -7.785156 L 22.011719 -8.816406 C 22.050781 -8.824219 22.082031 -8.871094 22.074219 -8.910156 C 21.882812 -10.058594 21.160156 -13.636719 21.042969 -14.230469 Z M 21.042969 -14.230469 "/></g></g></g><g fill="#964716" fill-opacity="1"><g transform="translate(234.157073, 340.344625)"><g/></g></g><g fill="#964716" fill-opacity="1"><g transform="translate(244.662431, 337.134312)"><g><path d="M 16.484375 -19.792969 C 16.378906 -19.917969 16.183594 -19.957031 16.039062 -19.886719 C 15.894531 -19.816406 9.789062 -16.582031 8.277344 -16.027344 C 7.300781 -15.640625 6.976562 -15.484375 5.917969 -15.550781 C 5.398438 -15.609375 4.847656 -16.011719 4.566406 -16.5 C 4.285156 -17.074219 4.476562 -18.242188 5.886719 -18.925781 C 6.589844 -19.222656 13.414062 -22.808594 14.40625 -23.246094 C 14.585938 -23.332031 14.660156 -23.546875 14.574219 -23.726562 C 14.574219 -23.726562 11.816406 -29.035156 11.503906 -29.953125 C 11.398438 -30.171875 11.34375 -30.371094 11.257812 -30.550781 L 10.34375 -32.425781 C 10.257812 -32.605469 9.703125 -32.738281 9.523438 -32.652344 L -0.0429688 -28.003906 C -2.714844 -26.703125 -5.589844 -24.816406 -6.386719 -22.6875 C -6.902344 -21.367188 -7.296875 -19.96875 -7.152344 -18.570312 C -6.949219 -17.148438 -6.46875 -15.507812 -5.695312 -13.921875 C -4.90625 -12.296875 -5.675781 -13.886719 -5.660156 -13.847656 L -3.554688 -9.515625 C -2.800781 -7.964844 -1.828125 -6.519531 0.398438 -5.148438 C 1.433594 -4.488281 2.882812 -4.167969 4.191406 -4.046875 C 5.464844 -3.90625 7.761719 -3.773438 12.34375 -6 L 20.792969 -10.105469 C 20.972656 -10.191406 21.046875 -10.40625 20.960938 -10.585938 L 19.890625 -12.789062 C 18.847656 -14.472656 16.992188 -18.65625 16.484375 -19.792969 Z M 16.484375 -19.792969 "/></g></g></g><g fill="#964716" fill-opacity="1"><g transform="translate(270.671441, 324.037638)"><g><path d="M 16.492188 -17.292969 C 15.957031 -17.945312 15.453125 -18.621094 14.984375 -19.320312 C 14.679688 -19.796875 13.609375 -21.300781 13.511719 -21.429688 C 13.394531 -21.589844 13.296875 -21.519531 13.265625 -21.496094 C 12.113281 -20.6875 9.160156 -18.136719 8.242188 -17.554688 C 7.597656 -17.074219 5.546875 -15.394531 4.96875 -15.566406 C 4.367188 -15.765625 3.984375 -16.484375 3.546875 -17.007812 C 3.160156 -17.519531 1.269531 -20.265625 0.644531 -21.101562 C -0.0585938 -21.976562 -0.707031 -22.847656 -1.410156 -23.722656 C -2.449219 -25.050781 -3.550781 -26.332031 -4.558594 -27.683594 C -4.65625 -27.8125 -4.824219 -27.835938 -4.921875 -27.765625 L -13.964844 -21.027344 C -14.0625 -20.953125 -14.078125 -20.84375 -13.980469 -20.714844 C -13.589844 -20.054688 -13.101562 -19.46875 -12.613281 -18.878906 C -12.03125 -18.164062 -11.480469 -17.421875 -10.960938 -16.660156 C -9.746094 -14.960938 -8.5 -13.289062 -7.25 -11.613281 L 0.253906 -1.539062 C 0.277344 -1.507812 0.300781 -1.476562 0.324219 -1.445312 C 0.351562 -1.410156 0.351562 -1.410156 0.375 -1.378906 L 0.734375 -0.898438 C 0.828125 -0.769531 0.964844 -0.71875 1.0625 -0.792969 L 18.796875 -14.003906 C 18.890625 -14.074219 18.882812 -14.21875 18.789062 -14.347656 C 18.789062 -14.347656 16.902344 -16.746094 16.492188 -17.292969 Z M 16.492188 -17.292969 "/></g></g></g><g fill="#964716" fill-opacity="1"><g transform="translate(293.2762, 306.317683)"><g><path d="M -17.109375 -18.542969 C -17.109375 -18.484375 -17.109375 -18.429688 -17.082031 -18.34375 C -15.96875 -17.246094 -9.175781 -10.699219 -6.917969 -8.527344 C -5.378906 -7.0625 -0.15625 -2.070312 0.648438 -0.882812 C 0.703125 -0.828125 0.816406 -0.828125 0.875 -0.886719 L 8.859375 -8.964844 C 9.027344 -9.136719 9.023438 -9.417969 8.855469 -9.589844 C 7.398438 -10.800781 6 -12.011719 4.632812 -13.308594 C 3.03125 -14.832031 -6.074219 -23.492188 -8.671875 -26.453125 C -8.84375 -26.625 -9.128906 -26.621094 -9.296875 -26.449219 Z M -17.109375 -18.542969 "/></g></g></g><g fill="#964716" fill-opacity="1"><g transform="translate(306.083633, 293.518753)"><g><path d="M 4.648438 -25.882812 C 0.976562 -28.546875 -2.617188 -31.25 -6.285156 -33.914062 C -6.320312 -33.9375 -6.351562 -33.960938 -6.382812 -33.984375 C -6.417969 -34.007812 -6.472656 -34 -6.496094 -33.96875 L -12.058594 -26.300781 C -12.082031 -26.269531 -12.074219 -26.210938 -12.039062 -26.1875 C -10.609375 -25.152344 -7.996094 -23.355469 -6.726562 -22.234375 C -6.492188 -22.015625 -6.300781 -21.726562 -6.402344 -21.453125 C -6.476562 -21.210938 -6.742188 -21.054688 -7.070312 -21.144531 C -8.902344 -21.628906 -11.890625 -23.253906 -13.746094 -23.90625 C -13.777344 -23.929688 -13.800781 -23.898438 -13.824219 -23.863281 L -19.75 -15.765625 C -19.773438 -15.734375 -19.765625 -15.679688 -19.699219 -15.628906 C -19.699219 -15.628906 -13.132812 -11.015625 -10.101562 -8.765625 C -6.527344 -6.175781 -3.058594 -3.507812 0.515625 -0.914062 C 0.582031 -0.867188 0.613281 -0.84375 0.660156 -0.910156 L 6.058594 -8.347656 C 6.082031 -8.382812 6.070312 -8.4375 6.039062 -8.460938 C 4.640625 -9.472656 2.566406 -10.78125 1.25 -11.835938 C 0.71875 -12.269531 0.738281 -13.050781 1.382812 -12.980469 C 2.589844 -12.796875 4.398438 -11.734375 5.730469 -11.3125 C 6.390625 -11.132812 7.027344 -10.917969 7.675781 -10.648438 C 7.730469 -10.65625 7.730469 -10.65625 7.753906 -10.6875 L 13.835938 -19.070312 C 13.859375 -19.101562 13.847656 -19.15625 13.816406 -19.179688 C 13.339844 -19.480469 7.246094 -24 4.648438 -25.882812 Z M 4.648438 -25.882812 "/></g></g></g><g fill="#964716" fill-opacity="1"><g transform="translate(322.485184, 269.683795)"><g><path d="M -21.871094 -12.582031 C -21.855469 -12.527344 -21.835938 -12.472656 -21.785156 -12.398438 C -20.390625 -11.683594 -11.953125 -7.46875 -9.152344 -6.070312 C -7.242188 -5.132812 -0.765625 -1.929688 0.355469 -1.035156 C 0.425781 -1 0.53125 -1.035156 0.570312 -1.105469 L 5.773438 -11.203125 C 5.882812 -11.417969 5.796875 -11.6875 5.582031 -11.796875 C 3.832031 -12.519531 2.136719 -13.257812 0.441406 -14.085938 C -1.539062 -15.0625 -12.816406 -20.601562 -16.183594 -22.652344 C -16.398438 -22.761719 -16.667969 -22.675781 -16.777344 -22.464844 Z M -21.871094 -12.582031 "/></g></g></g><g fill="#964716" fill-opacity="1"><g transform="translate(330.863114, 253.640747)"><g><path d="M -2.546875 -25.632812 C -2.710938 -25.644531 -2.875 -25.53125 -2.925781 -25.378906 C -2.980469 -25.226562 -4.953125 -18.609375 -5.617188 -17.140625 C -6.027344 -16.175781 -6.144531 -15.832031 -6.933594 -15.125 C -7.339844 -14.796875 -8.011719 -14.683594 -8.558594 -14.824219 C -9.167969 -15.03125 -9.863281 -15.984375 -9.363281 -17.46875 C -9.082031 -18.179688 -6.847656 -25.558594 -6.464844 -26.570312 C -6.402344 -26.761719 -6.5 -26.964844 -6.691406 -27.027344 C -6.691406 -27.027344 -12.410156 -28.785156 -13.285156 -29.207031 C -13.511719 -29.285156 -13.691406 -29.386719 -13.878906 -29.449219 L -15.859375 -30.117188 C -16.046875 -30.179688 -16.53125 -29.878906 -16.59375 -29.6875 L -19.992188 -19.609375 C -20.9375 -16.792969 -21.609375 -13.421875 -20.652344 -11.359375 C -20.070312 -10.066406 -19.351562 -8.804688 -18.25 -7.925781 C -17.097656 -7.074219 -15.589844 -6.269531 -13.917969 -5.703125 C -12.207031 -5.128906 -13.878906 -5.691406 -13.839844 -5.679688 L -9.277344 -4.140625 C -7.640625 -3.589844 -5.929688 -3.269531 -3.390625 -3.894531 C -2.195312 -4.167969 -0.949219 -4.976562 0.0546875 -5.824219 C 1.050781 -6.632812 2.753906 -8.175781 4.382812 -13.007812 L 7.378906 -21.90625 C 7.445312 -22.097656 7.34375 -22.300781 7.152344 -22.367188 L 4.832031 -23.148438 C 2.90625 -23.585938 -1.378906 -25.199219 -2.546875 -25.632812 Z M -2.546875 -25.632812 "/></g></g></g></svg>