<?xml version="1.0" encoding="iso-8859-1"?>
<!-- Generator: Adobe Illustrator 16.0.0, SVG Export Plug-In . SVG Version: 6.00 Build 0)  -->
<!DOCTYPE svg PUBLIC "-//W3C//DTD SVG 1.1//EN" "http://www.w3.org/Graphics/SVG/1.1/DTD/svg11.dtd">
<svg version="1.1" id="Capa_1" xmlns="http://www.w3.org/2000/svg" xmlns:xlink="http://www.w3.org/1999/xlink" x="0px" y="0px"
	 width="561px" height="561px" viewBox="0 0 561 561" style="enable-background:new 0 0 561 561;" xml:space="preserve">
<g>
	<g id="cast">
		<path d="M510,51H51C22.95,51,0,73.95,0,102v76.5h51V102h459v357H331.5v51H510c28.05,0,51-22.95,51-51V102
			C561,73.95,538.05,51,510,51z M0,433.5V510h76.5C76.5,466.65,43.35,433.5,0,433.5z M0,331.5v51c71.4,0,127.5,56.1,127.5,127.5h51
			C178.5,410.55,99.45,331.5,0,331.5z M0,229.5v51c127.5,0,229.5,102,229.5,229.5h51C280.5,354.45,155.55,229.5,0,229.5z"/>
	</g>
</g>
<g>
</g>
<g>
</g>
<g>
</g>
<g>
</g>
<g>
</g>
<g>
</g>
<g>
</g>
<g>
</g>
<g>
</g>
<g>
</g>
<g>
</g>
<g>
</g>
<g>
</g>
<g>
</g>
<g>
</g>
</svg>
